<?xml version="1.0" encoding="UTF-8" standalone="no"?>
<!-- Created with Inkscape (http://www.inkscape.org/) -->

<svg
   width="1000"
   height="1000"
   viewBox="0 0 233.67068 233.67068"
   version="1.1"
   id="svg5"
   sodipodi:docname="tree.svg"
   inkscape:version="1.2.1 (9c6d41e4, 2022-07-14)"
   xmlns:inkscape="http://www.inkscape.org/namespaces/inkscape"
   xmlns:sodipodi="http://sodipodi.sourceforge.net/DTD/sodipodi-0.dtd"
   xmlns="http://www.w3.org/2000/svg"
   xmlns:svg="http://www.w3.org/2000/svg">
  <sodipodi:namedview
     id="namedview7"
     pagecolor="#ffffff"
     bordercolor="#000000"
     borderopacity="0.25"
     inkscape:showpageshadow="2"
     inkscape:pageopacity="0.0"
     inkscape:pagecheckerboard="0"
     inkscape:deskcolor="#d1d1d1"
     inkscape:document-units="mm"
     showgrid="false"
     inkscape:zoom="0.4409611"
     inkscape:cx="820.93409"
     inkscape:cy="632.70887"
     inkscape:window-width="1639"
     inkscape:window-height="846"
     inkscape:window-x="0"
     inkscape:window-y="25"
     inkscape:window-maximized="0"
     inkscape:current-layer="layer1" />
  <defs
     id="defs2">
    <inkscape:path-effect
       effect="skeletal"
       id="path-effect1730"
       is_visible="true"
       lpeversion="1"
       pattern="M 0,4.4088808 C 0,1.9751786 1.9751786,0 4.4088808,0 c 2.4337021,0 4.4088807,1.9751786 4.4088807,4.4088808 0,2.4337021 -1.9751786,4.4088807 -4.4088807,4.4088807 C 1.9751786,8.8177615 0,6.8425829 0,4.4088808 Z"
       copytype="single_stretched"
       prop_scale="1"
       scale_y_rel="false"
       spacing="0"
       normal_offset="0"
       tang_offset="0"
       prop_units="false"
       vertical_pattern="false"
       hide_knot="false"
       fuse_tolerance="0" />
    <inkscape:path-effect
       effect="spiro"
       id="path-effect1728"
       is_visible="true"
       lpeversion="1" />
    <inkscape:path-effect
       effect="simplify"
       id="path-effect1726"
       is_visible="true"
       lpeversion="1"
       steps="1"
       threshold="0.00228916"
       smooth_angles="360"
       helper_size="0"
       simplify_individual_paths="false"
       simplify_just_coalesce="false" />
    <inkscape:path-effect
       effect="skeletal"
       id="path-effect1722"
       is_visible="true"
       lpeversion="1"
       pattern="M 0,4.4088808 C 0,1.9751786 1.9751786,0 4.4088808,0 c 2.4337021,0 4.4088807,1.9751786 4.4088807,4.4088808 0,2.4337021 -1.9751786,4.4088807 -4.4088807,4.4088807 C 1.9751786,8.8177615 0,6.8425829 0,4.4088808 Z"
       copytype="single_stretched"
       prop_scale="1"
       scale_y_rel="false"
       spacing="0"
       normal_offset="0"
       tang_offset="0"
       prop_units="false"
       vertical_pattern="false"
       hide_knot="false"
       fuse_tolerance="0" />
    <inkscape:path-effect
       effect="spiro"
       id="path-effect1720"
       is_visible="true"
       lpeversion="1" />
    <inkscape:path-effect
       effect="simplify"
       id="path-effect1718"
       is_visible="true"
       lpeversion="1"
       steps="1"
       threshold="0.00228916"
       smooth_angles="360"
       helper_size="0"
       simplify_individual_paths="false"
       simplify_just_coalesce="false" />
    <inkscape:path-effect
       effect="skeletal"
       id="path-effect1714"
       is_visible="true"
       lpeversion="1"
       pattern="M 0,4.4088808 C 0,1.9751786 1.9751786,0 4.4088808,0 c 2.4337021,0 4.4088807,1.9751786 4.4088807,4.4088808 0,2.4337021 -1.9751786,4.4088807 -4.4088807,4.4088807 C 1.9751786,8.8177615 0,6.8425829 0,4.4088808 Z"
       copytype="single_stretched"
       prop_scale="1"
       scale_y_rel="false"
       spacing="0"
       normal_offset="0"
       tang_offset="0"
       prop_units="false"
       vertical_pattern="false"
       hide_knot="false"
       fuse_tolerance="0" />
    <inkscape:path-effect
       effect="spiro"
       id="path-effect1712"
       is_visible="true"
       lpeversion="1" />
    <inkscape:path-effect
       effect="simplify"
       id="path-effect1710"
       is_visible="true"
       lpeversion="1"
       steps="1"
       threshold="0.00228916"
       smooth_angles="360"
       helper_size="0"
       simplify_individual_paths="false"
       simplify_just_coalesce="false" />
    <inkscape:path-effect
       effect="skeletal"
       id="path-effect1706"
       is_visible="true"
       lpeversion="1"
       pattern="M 0,4.4088808 C 0,1.9751786 1.9751786,0 4.4088808,0 c 2.4337021,0 4.4088807,1.9751786 4.4088807,4.4088808 0,2.4337021 -1.9751786,4.4088807 -4.4088807,4.4088807 C 1.9751786,8.8177615 0,6.8425829 0,4.4088808 Z"
       copytype="single_stretched"
       prop_scale="1"
       scale_y_rel="false"
       spacing="0"
       normal_offset="0"
       tang_offset="0"
       prop_units="false"
       vertical_pattern="false"
       hide_knot="false"
       fuse_tolerance="0" />
    <inkscape:path-effect
       effect="spiro"
       id="path-effect1704"
       is_visible="true"
       lpeversion="1" />
    <inkscape:path-effect
       effect="simplify"
       id="path-effect1702"
       is_visible="true"
       lpeversion="1"
       steps="1"
       threshold="0.00228916"
       smooth_angles="360"
       helper_size="0"
       simplify_individual_paths="false"
       simplify_just_coalesce="false" />
    <inkscape:path-effect
       effect="skeletal"
       id="path-effect1666"
       is_visible="true"
       lpeversion="1"
       pattern="M 0,4.4088808 C 0,1.9751786 1.9751786,0 4.4088808,0 c 2.4337021,0 4.4088807,1.9751786 4.4088807,4.4088808 0,2.4337021 -1.9751786,4.4088807 -4.4088807,4.4088807 C 1.9751786,8.8177615 0,6.8425829 0,4.4088808 Z"
       copytype="single_stretched"
       prop_scale="1"
       scale_y_rel="false"
       spacing="0"
       normal_offset="0"
       tang_offset="0"
       prop_units="false"
       vertical_pattern="false"
       hide_knot="false"
       fuse_tolerance="0" />
    <inkscape:path-effect
       effect="spiro"
       id="path-effect1664"
       is_visible="true"
       lpeversion="1" />
    <inkscape:path-effect
       effect="simplify"
       id="path-effect1662"
       is_visible="true"
       lpeversion="1"
       steps="1"
       threshold="0.00228916"
       smooth_angles="360"
       helper_size="0"
       simplify_individual_paths="false"
       simplify_just_coalesce="false" />
    <inkscape:path-effect
       effect="skeletal"
       id="path-effect1658"
       is_visible="true"
       lpeversion="1"
       pattern="M 0,4.4088808 C 0,1.9751786 1.9751786,0 4.4088808,0 c 2.4337021,0 4.4088807,1.9751786 4.4088807,4.4088808 0,2.4337021 -1.9751786,4.4088807 -4.4088807,4.4088807 C 1.9751786,8.8177615 0,6.8425829 0,4.4088808 Z"
       copytype="single_stretched"
       prop_scale="1"
       scale_y_rel="false"
       spacing="0"
       normal_offset="0"
       tang_offset="0"
       prop_units="false"
       vertical_pattern="false"
       hide_knot="false"
       fuse_tolerance="0" />
    <inkscape:path-effect
       effect="spiro"
       id="path-effect1656"
       is_visible="true"
       lpeversion="1" />
    <inkscape:path-effect
       effect="simplify"
       id="path-effect1654"
       is_visible="true"
       lpeversion="1"
       steps="1"
       threshold="0.00228916"
       smooth_angles="360"
       helper_size="0"
       simplify_individual_paths="false"
       simplify_just_coalesce="false" />
    <inkscape:path-effect
       effect="skeletal"
       id="path-effect1650"
       is_visible="true"
       lpeversion="1"
       pattern="M 0,4.4088808 C 0,1.9751786 1.9751786,0 4.4088808,0 c 2.4337021,0 4.4088807,1.9751786 4.4088807,4.4088808 0,2.4337021 -1.9751786,4.4088807 -4.4088807,4.4088807 C 1.9751786,8.8177615 0,6.8425829 0,4.4088808 Z"
       copytype="single_stretched"
       prop_scale="1"
       scale_y_rel="false"
       spacing="0"
       normal_offset="0"
       tang_offset="0"
       prop_units="false"
       vertical_pattern="false"
       hide_knot="false"
       fuse_tolerance="0" />
    <inkscape:path-effect
       effect="spiro"
       id="path-effect1648"
       is_visible="true"
       lpeversion="1" />
    <inkscape:path-effect
       effect="simplify"
       id="path-effect1646"
       is_visible="true"
       lpeversion="1"
       steps="1"
       threshold="0.00228916"
       smooth_angles="360"
       helper_size="0"
       simplify_individual_paths="false"
       simplify_just_coalesce="false" />
    <inkscape:path-effect
       effect="skeletal"
       id="path-effect1634"
       is_visible="true"
       lpeversion="1"
       pattern="M 0,4.4088808 C 0,1.9751786 1.9751786,0 4.4088808,0 c 2.4337021,0 4.4088807,1.9751786 4.4088807,4.4088808 0,2.4337021 -1.9751786,4.4088807 -4.4088807,4.4088807 C 1.9751786,8.8177615 0,6.8425829 0,4.4088808 Z"
       copytype="single_stretched"
       prop_scale="1"
       scale_y_rel="false"
       spacing="0"
       normal_offset="0"
       tang_offset="0"
       prop_units="false"
       vertical_pattern="false"
       hide_knot="false"
       fuse_tolerance="0" />
    <inkscape:path-effect
       effect="spiro"
       id="path-effect1632"
       is_visible="true"
       lpeversion="1" />
    <inkscape:path-effect
       effect="simplify"
       id="path-effect1630"
       is_visible="true"
       lpeversion="1"
       steps="1"
       threshold="0.00228916"
       smooth_angles="360"
       helper_size="0"
       simplify_individual_paths="false"
       simplify_just_coalesce="false" />
    <inkscape:path-effect
       effect="skeletal"
       id="path-effect1626"
       is_visible="true"
       lpeversion="1"
       pattern="M 0,4.4088808 C 0,1.9751786 1.9751786,0 4.4088808,0 c 2.4337021,0 4.4088807,1.9751786 4.4088807,4.4088808 0,2.4337021 -1.9751786,4.4088807 -4.4088807,4.4088807 C 1.9751786,8.8177615 0,6.8425829 0,4.4088808 Z"
       copytype="single_stretched"
       prop_scale="1"
       scale_y_rel="false"
       spacing="0"
       normal_offset="0"
       tang_offset="0"
       prop_units="false"
       vertical_pattern="false"
       hide_knot="false"
       fuse_tolerance="0" />
    <inkscape:path-effect
       effect="spiro"
       id="path-effect1624"
       is_visible="true"
       lpeversion="1" />
    <inkscape:path-effect
       effect="simplify"
       id="path-effect1622"
       is_visible="true"
       lpeversion="1"
       steps="1"
       threshold="0.00228916"
       smooth_angles="360"
       helper_size="0"
       simplify_individual_paths="false"
       simplify_just_coalesce="false" />
    <inkscape:path-effect
       effect="skeletal"
       id="path-effect1618"
       is_visible="true"
       lpeversion="1"
       pattern="M 0,4.4088808 C 0,1.9751786 1.9751786,0 4.4088808,0 c 2.4337021,0 4.4088807,1.9751786 4.4088807,4.4088808 0,2.4337021 -1.9751786,4.4088807 -4.4088807,4.4088807 C 1.9751786,8.8177615 0,6.8425829 0,4.4088808 Z"
       copytype="single_stretched"
       prop_scale="1"
       scale_y_rel="false"
       spacing="0"
       normal_offset="0"
       tang_offset="0"
       prop_units="false"
       vertical_pattern="false"
       hide_knot="false"
       fuse_tolerance="0" />
    <inkscape:path-effect
       effect="spiro"
       id="path-effect1616"
       is_visible="true"
       lpeversion="1" />
    <inkscape:path-effect
       effect="simplify"
       id="path-effect1614"
       is_visible="true"
       lpeversion="1"
       steps="1"
       threshold="0.00228916"
       smooth_angles="360"
       helper_size="0"
       simplify_individual_paths="false"
       simplify_just_coalesce="false" />
    <inkscape:path-effect
       effect="skeletal"
       id="path-effect1602"
       is_visible="true"
       lpeversion="1"
       pattern="M 0,4.4088808 C 0,1.9751786 1.9751786,0 4.4088808,0 c 2.4337021,0 4.4088807,1.9751786 4.4088807,4.4088808 0,2.4337021 -1.9751786,4.4088807 -4.4088807,4.4088807 C 1.9751786,8.8177615 0,6.8425829 0,4.4088808 Z"
       copytype="single_stretched"
       prop_scale="1"
       scale_y_rel="false"
       spacing="0"
       normal_offset="0"
       tang_offset="0"
       prop_units="false"
       vertical_pattern="false"
       hide_knot="false"
       fuse_tolerance="0" />
    <inkscape:path-effect
       effect="spiro"
       id="path-effect1600"
       is_visible="true"
       lpeversion="1" />
    <inkscape:path-effect
       effect="simplify"
       id="path-effect1598"
       is_visible="true"
       lpeversion="1"
       steps="1"
       threshold="0.00228916"
       smooth_angles="360"
       helper_size="0"
       simplify_individual_paths="false"
       simplify_just_coalesce="false" />
    <inkscape:path-effect
       effect="skeletal"
       id="path-effect1570"
       is_visible="true"
       lpeversion="1"
       pattern="M 0,4.4088808 C 0,1.9751786 1.9751786,0 4.4088808,0 c 2.4337021,0 4.4088807,1.9751786 4.4088807,4.4088808 0,2.4337021 -1.9751786,4.4088807 -4.4088807,4.4088807 C 1.9751786,8.8177615 0,6.8425829 0,4.4088808 Z"
       copytype="single_stretched"
       prop_scale="1"
       scale_y_rel="false"
       spacing="0"
       normal_offset="0"
       tang_offset="0"
       prop_units="false"
       vertical_pattern="false"
       hide_knot="false"
       fuse_tolerance="0" />
    <inkscape:path-effect
       effect="spiro"
       id="path-effect1568"
       is_visible="true"
       lpeversion="1" />
    <inkscape:path-effect
       effect="simplify"
       id="path-effect1566"
       is_visible="true"
       lpeversion="1"
       steps="1"
       threshold="0.00228916"
       smooth_angles="360"
       helper_size="0"
       simplify_individual_paths="false"
       simplify_just_coalesce="false" />
    <inkscape:path-effect
       effect="skeletal"
       id="path-effect1562"
       is_visible="true"
       lpeversion="1"
       pattern="M 0,4.4088808 C 0,1.9751786 1.9751786,0 4.4088808,0 c 2.4337021,0 4.4088807,1.9751786 4.4088807,4.4088808 0,2.4337021 -1.9751786,4.4088807 -4.4088807,4.4088807 C 1.9751786,8.8177615 0,6.8425829 0,4.4088808 Z"
       copytype="single_stretched"
       prop_scale="1"
       scale_y_rel="false"
       spacing="0"
       normal_offset="0"
       tang_offset="0"
       prop_units="false"
       vertical_pattern="false"
       hide_knot="false"
       fuse_tolerance="0" />
    <inkscape:path-effect
       effect="spiro"
       id="path-effect1560"
       is_visible="true"
       lpeversion="1" />
    <inkscape:path-effect
       effect="simplify"
       id="path-effect1558"
       is_visible="true"
       lpeversion="1"
       steps="1"
       threshold="0.00228916"
       smooth_angles="360"
       helper_size="0"
       simplify_individual_paths="false"
       simplify_just_coalesce="false" />
    <inkscape:path-effect
       effect="skeletal"
       id="path-effect1554"
       is_visible="true"
       lpeversion="1"
       pattern="M 0,4.4088808 C 0,1.9751786 1.9751786,0 4.4088808,0 c 2.4337021,0 4.4088807,1.9751786 4.4088807,4.4088808 0,2.4337021 -1.9751786,4.4088807 -4.4088807,4.4088807 C 1.9751786,8.8177615 0,6.8425829 0,4.4088808 Z"
       copytype="single_stretched"
       prop_scale="1"
       scale_y_rel="false"
       spacing="0"
       normal_offset="0"
       tang_offset="0"
       prop_units="false"
       vertical_pattern="false"
       hide_knot="false"
       fuse_tolerance="0" />
    <inkscape:path-effect
       effect="spiro"
       id="path-effect1552"
       is_visible="true"
       lpeversion="1" />
    <inkscape:path-effect
       effect="simplify"
       id="path-effect1550"
       is_visible="true"
       lpeversion="1"
       steps="1"
       threshold="0.00228916"
       smooth_angles="360"
       helper_size="0"
       simplify_individual_paths="false"
       simplify_just_coalesce="false" />
    <inkscape:path-effect
       effect="skeletal"
       id="path-effect1546"
       is_visible="true"
       lpeversion="1"
       pattern="M 0,4.4088808 C 0,1.9751786 1.9751786,0 4.4088808,0 c 2.4337021,0 4.4088807,1.9751786 4.4088807,4.4088808 0,2.4337021 -1.9751786,4.4088807 -4.4088807,4.4088807 C 1.9751786,8.8177615 0,6.8425829 0,4.4088808 Z"
       copytype="single_stretched"
       prop_scale="1"
       scale_y_rel="false"
       spacing="0"
       normal_offset="0"
       tang_offset="0"
       prop_units="false"
       vertical_pattern="false"
       hide_knot="false"
       fuse_tolerance="0" />
    <inkscape:path-effect
       effect="spiro"
       id="path-effect1544"
       is_visible="true"
       lpeversion="1" />
    <inkscape:path-effect
       effect="simplify"
       id="path-effect1542"
       is_visible="true"
       lpeversion="1"
       steps="1"
       threshold="0.00228916"
       smooth_angles="360"
       helper_size="0"
       simplify_individual_paths="false"
       simplify_just_coalesce="false" />
    <inkscape:path-effect
       effect="skeletal"
       id="path-effect1538"
       is_visible="true"
       lpeversion="1"
       pattern="M 0,4.4088808 C 0,1.9751786 1.9751786,0 4.4088808,0 c 2.4337021,0 4.4088807,1.9751786 4.4088807,4.4088808 0,2.4337021 -1.9751786,4.4088807 -4.4088807,4.4088807 C 1.9751786,8.8177615 0,6.8425829 0,4.4088808 Z"
       copytype="single_stretched"
       prop_scale="1"
       scale_y_rel="false"
       spacing="0"
       normal_offset="0"
       tang_offset="0"
       prop_units="false"
       vertical_pattern="false"
       hide_knot="false"
       fuse_tolerance="0" />
    <inkscape:path-effect
       effect="spiro"
       id="path-effect1536"
       is_visible="true"
       lpeversion="1" />
    <inkscape:path-effect
       effect="simplify"
       id="path-effect1534"
       is_visible="true"
       lpeversion="1"
       steps="1"
       threshold="0.00228916"
       smooth_angles="360"
       helper_size="0"
       simplify_individual_paths="false"
       simplify_just_coalesce="false" />
    <inkscape:path-effect
       effect="skeletal"
       id="path-effect1530"
       is_visible="true"
       lpeversion="1"
       pattern="M 0,4.4088808 C 0,1.9751786 1.9751786,0 4.4088808,0 c 2.4337021,0 4.4088807,1.9751786 4.4088807,4.4088808 0,2.4337021 -1.9751786,4.4088807 -4.4088807,4.4088807 C 1.9751786,8.8177615 0,6.8425829 0,4.4088808 Z"
       copytype="single_stretched"
       prop_scale="1"
       scale_y_rel="false"
       spacing="0"
       normal_offset="0"
       tang_offset="0"
       prop_units="false"
       vertical_pattern="false"
       hide_knot="false"
       fuse_tolerance="0" />
    <inkscape:path-effect
       effect="spiro"
       id="path-effect1528"
       is_visible="true"
       lpeversion="1" />
    <inkscape:path-effect
       effect="simplify"
       id="path-effect1526"
       is_visible="true"
       lpeversion="1"
       steps="1"
       threshold="0.00228916"
       smooth_angles="360"
       helper_size="0"
       simplify_individual_paths="false"
       simplify_just_coalesce="false" />
  </defs>
  <g
     inkscape:label="Layer 1"
     inkscape:groupmode="layer"
     id="layer1">
    <path
       id="path1524"
       style="fill:#000000;stroke-width:0.233671;stroke:none"
       d="M 165.3325 18.546697 C 164.77193 18.595001 164.61828 21.232306 163.77668 25.746219 C 163.49791 27.19988 163.11366 29.051438 162.38926 30.579825 C 161.78106 31.840116 160.90792 33.151293 159.75498 33.86308 C 158.60286 34.705965 156.96599 34.989597 154.84881 35.310743 C 153.07519 35.511823 150.59867 35.649971 148.04407 36.362261 C 144.37754 37.49591 141.12844 39.714794 138.45581 42.568226 C 135.95093 45.190394 134.10683 47.813738 132.01526 50.529003 C 129.26003 54.075022 125.34719 58.526451 122.291 63.359896 C 122.17804 62.887735 122.05558 62.418328 121.92178 61.953308 C 121.20427 59.667901 120.214 57.475091 119.10085 55.412355 C 122.0332 46.669344 122.41994 37.924486 122.43613 32.429109 C 122.48222 23.973295 121.69022 19.09984 120.82006 19.07702 C 119.9499 19.054196 119.11453 23.862475 117.72165 32.020642 C 117.02986 36.008868 116.04774 42.01252 114.20837 47.871455 C 112.68353 45.831382 111.25437 44.094122 110.22365 42.799158 C 104.89812 36.02748 101.94284 31.924934 101.21318 32.324596 C 100.48352 32.724264 102.0789 37.605958 106.44156 45.327548 C 107.67997 47.549536 109.78773 50.874215 111.66811 54.446638 C 109.94858 57.953075 107.72821 61.595253 104.63198 63.479926 C 103.43548 64.244659 101.34144 65.238607 99.162626 67.123272 C 98.759354 67.523876 98.396226 67.927754 98.049952 68.331788 C 97.544751 67.250301 96.934516 66.315794 96.30518 65.528652 C 95.022243 63.837376 93.793931 62.594091 92.923345 61.419791 C 91.413406 59.4599 90.047937 56.391742 88.939077 54.260888 C 87.234086 50.850431 85.447885 48.47051 83.346954 46.829977 C 80.280594 44.481278 78.061163 44.586206 77.897225 45.042762 C 77.733281 45.499313 79.515852 46.386926 81.419171 48.829414 C 82.832409 50.598206 83.66947 52.544019 84.898674 55.992424 C 85.631318 58.162195 86.632658 61.456729 88.357182 64.424193 C 89.367122 66.107982 90.529897 67.564598 91.383491 68.948368 C 92.109783 70.223921 92.759071 71.473518 92.711581 72.475335 C 92.782947 73.228112 92.503698 74.165648 92.132881 75.31133 C 91.738068 76.419095 91.11663 77.714481 90.546932 79.35721 C 89.957841 80.929267 89.569078 82.891154 89.76377 85.162466 C 89.818817 85.520176 89.886068 85.860521 89.958648 86.192077 C 86.519648 81.823698 82.845545 78.958307 80.593109 75.905547 C 77.434863 71.821531 75.492395 66.330707 72.426045 61.876635 C 70.34885 58.907681 67.700793 56.169949 66.00649 54.324326 C 60.077413 47.843936 56.977739 43.530796 56.170872 43.982572 C 55.364 44.434354 56.97116 49.658433 62.069231 57.381213 C 63.458457 59.493061 65.814567 62.707623 67.133769 65.171757 C 69.260083 69.056964 70.611272 74.439514 74.344244 80.255382 C 77.471698 84.951493 81.700718 88.487322 84.142439 92.382068 C 85.085711 93.796338 85.845953 95.376886 86.514287 97.090624 C 86.102325 98.167765 85.693912 99.294709 85.348216 100.4501 C 84.887282 101.94095 84.53322 103.60695 84.401667 105.39962 C 84.297212 105.32667 84.192426 105.24813 84.088128 105.17645 C 81.330177 103.22228 78.890559 101.76594 76.847076 100.04437 C 75.756864 99.143815 74.710668 98.120355 73.687045 97.039508 C 72.614822 95.90053 71.528382 94.642835 70.168749 93.3131 C 68.402254 91.597496 66.783157 90.372 65.689757 89.17366 C 63.001724 86.456627 61.216635 81.925958 57.99688 77.835156 C 55.036909 74.18845 51.176648 71.217455 48.778298 68.957952 C 45.924163 66.214899 43.691158 63.514503 40.079998 61.130897 C 36.889954 59.101578 34.12072 58.247262 32.287629 56.918435 C 28.915144 54.689497 26.830433 50.199057 25.694647 47.646456 C 25.290681 46.657925 25.014772 46.072557 24.927002 45.405134 C 24.869482 45.019924 24.860724 44.68683 24.907834 44.386932 C 24.969014 43.994959 25.093027 43.678948 25.249212 43.427148 C 25.577178 42.882634 26.002772 42.620333 25.965742 42.392973 C 25.943202 42.254594 25.418727 41.8568 24.405351 42.367415 C 23.966243 42.592576 23.470518 42.998439 23.103732 43.62659 C 22.824937 44.10245 22.611698 44.678495 22.520468 45.32481 C 22.381003 46.38329 22.488511 47.444733 22.724474 48.551017 C 23.277394 51.560844 24.72776 56.836509 29.090174 60.873038 C 31.546297 63.012288 34.522607 64.380631 36.653437 66.054411 C 39.21258 67.968882 40.777465 70.434991 43.886731 73.762349 C 46.7187 76.845454 49.905147 79.427518 51.972558 82.413184 C 54.183392 85.468949 55.790168 90.062351 59.622534 94.615175 C 61.303556 96.510147 63.012412 97.924239 64.280887 99.229258 C 65.250912 100.21783 66.249874 101.4454 67.448677 102.77585 C 68.60757 104.06867 69.879087 105.35791 71.292833 106.58395 C 73.964687 108.86696 76.589268 110.5279 79.017657 112.27739 C 81.94317 114.45856 84.688222 116.72883 86.302523 119.41576 C 86.772406 120.1689 87.175773 120.95023 87.492327 121.74471 C 87.59126 122.07732 87.695377 122.41311 87.809973 122.75606 C 87.851611 122.87258 87.896303 122.97987 87.938674 123.09425 C 87.969086 123.198 87.990703 123.30663 88.01763 123.41235 C 87.193881 126.68838 86.343873 129.94841 85.821947 133.60349 C 85.242941 137.93881 85.258259 142.2089 85.409828 146.08571 C 84.941806 150.39744 84.717227 154.48569 84.291221 158.29409 C 83.900509 161.69488 83.375882 165.02514 83.334632 168.78234 C 83.314834 171.41767 83.530049 173.77726 83.66597 175.91021 C 83.186223 176.02161 82.65527 176.12119 82.071806 176.22512 C 80.454273 176.38995 78.370722 176.30589 75.969442 176.63085 C 71.706809 177.32076 68.144882 179.19209 65.342902 181.23443 C 62.428897 183.31566 59.56683 185.94783 57.455604 187.70236 C 55.543255 189.2821 53.78511 190.60179 51.950195 192.41503 C 46.473935 197.87948 44.680497 204.2459 44.333535 208.38769 C 43.931885 213.21336 45.005276 215.72409 45.572628 215.67439 C 46.139985 215.62473 46.227051 213.0623 47.504975 208.98602 C 48.600859 205.48812 50.944369 200.45695 55.745062 196.59737 C 57.38776 195.25888 59.030599 194.28624 61.262337 192.72765 C 63.953365 190.85909 66.52394 188.76257 69.247302 187.10404 C 71.69706 185.65255 74.362291 184.36445 76.919185 184.19776 C 78.356356 184.04096 80.247792 184.23448 82.645029 184.10739 C 82.688457 184.10714 82.734557 184.10219 82.778295 184.10146 C 82.762593 184.13041 82.748904 184.16171 82.732656 184.19 C 82.223022 185.27945 81.08065 186.29709 79.838699 187.29435 C 78.467669 188.34643 76.817151 189.33572 75.188562 190.5379 C 69.630487 194.66568 66.418126 199.85175 64.707154 204.25373 C 61.469415 212.57487 62.824575 217.77185 63.589459 217.79385 C 64.354348 217.81585 64.634405 212.82412 68.526665 206.0592 C 70.584052 202.48795 73.817029 198.44431 78.591847 195.53444 C 79.990685 194.67466 81.693426 193.83568 83.557349 192.63592 C 83.768028 192.50518 83.980301 192.36696 84.193098 192.22243 C 83.736761 192.95609 83.157114 193.76376 82.597565 194.66365 C 81.727011 195.9867 81.062377 197.51133 80.74463 199.14629 C 80.460454 201.11364 80.773395 202.66234 81.046759 203.66454 C 81.711047 206.27514 82.450112 207.74228 83.196346 207.72548 C 83.94258 207.70866 84.609921 206.2108 85.17844 203.58877 C 85.41336 202.59439 85.639444 201.30628 86.082544 200.66378 C 86.41128 200.04707 86.978429 199.50051 87.783959 198.64153 C 88.210482 198.21583 88.796903 197.66454 89.425587 197.0072 C 89.872428 199.61111 90.740393 200.91504 91.1448 200.83675 C 91.451898 200.77731 91.512428 199.92664 91.656868 198.47175 C 91.900152 198.67439 92.093486 198.76342 92.204533 198.71729 C 92.562503 198.56857 92.353912 197.26854 92.107779 195.08581 C 92.248064 194.2858 92.429778 193.41564 92.666855 192.48075 C 93.274047 191.35026 93.793896 190.17285 94.240481 188.95789 C 94.229546 189.483 94.2059 190.07914 94.198493 190.77705 C 94.197716 190.85386 94.196996 190.93141 94.196667 191.00981 C 94.15642 193.10592 94.300136 195.1483 94.638451 197.1108 C 94.834261 206.29903 95.060087 211.8875 95.914056 211.96486 C 96.455456 212.01389 97.237195 209.87893 98.034891 205.96701 C 99.723631 208.54916 101.09092 209.49193 101.83158 210.4816 C 102.63993 211.4704 103.15532 212.40433 103.86297 212.49473 C 104.48834 212.57457 105.51904 211.79249 105.72047 209.69662 C 105.79724 208.61068 105.67764 207.63389 105.45028 206.66483 C 105.45107 206.66488 105.45178 206.6657 105.45257 206.66574 C 106.02161 206.69657 106.82022 204.01273 107.43146 199.13945 C 108.10243 200.4191 108.8975 201.57845 109.85488 202.5902 C 113.45434 206.22095 116.39777 205.05668 116.58068 204.54628 C 116.90734 203.63473 115.03503 202.15735 114.05411 199.55157 C 113.40496 198.03237 113.33755 196.76334 112.99483 194.35376 C 115.48613 196.56664 117.17054 197.52994 117.64041 197.12723 C 118.38637 196.48789 115.97298 192.48807 112.01725 185.97585 C 112.13022 186.01158 112.23869 186.02174 112.34129 185.99912 C 112.57178 185.94831 112.76657 185.73852 112.92501 185.38802 C 115.62392 191.14494 118.19002 194.03524 119.094 193.98135 C 122.48134 200.05228 125.1398 203.40259 126.11919 202.95622 C 126.99932 202.55507 126.39774 199.16054 124.86047 193.70524 C 126.08611 194.58319 127.19346 195.32823 128.10174 196.08302 C 131.23061 198.57197 133.65472 202.17279 136.3797 204.93238 C 143.4514 212.11256 149.53645 213.33348 149.965 212.49473 C 150.3936 211.65598 145.38947 208.79396 140.23116 201.64502 C 138.70347 199.52183 135.77014 194.53263 132.54513 191.24348 C 130.97991 189.69708 129.32164 188.42282 127.93652 187.17523 C 123.79414 183.38264 119.91284 177.84658 119.13919 171.62107 C 118.6648 168.33965 119.10345 164.17349 118.28574 159.2169 C 118.60422 159.01011 118.92382 158.80699 119.23959 158.59256 C 119.63956 158.31735 120.03159 158.03983 120.41662 157.76103 C 123.037 155.86359 125.28178 153.95985 127.47146 152.47058 C 128.64987 151.67269 130.07501 150.79277 131.61182 149.55152 C 134.3748 147.31025 136.48844 144.29765 137.61286 140.83359 C 139.03199 135.67343 138.40246 130.95953 137.89993 127.34504 C 137.73321 125.81333 137.60401 124.31374 137.51976 122.84186 C 139.63491 121.54161 141.77228 120.17574 143.89094 118.71612 C 144.55813 118.25645 145.22088 117.7899 145.87805 117.315 C 148.87662 115.16395 151.33611 113.13632 153.90911 111.7603 C 157.39129 109.90718 161.83401 108.57575 166.19918 104.88071 C 169.35672 101.8823 171.22338 98.502604 172.73922 95.869786 C 173.76935 94.186018 174.7103 92.711833 175.78744 91.561026 C 176.89793 90.398101 178.03706 89.4652 179.20716 89.044959 C 180.34196 88.530382 181.9602 88.441955 183.73955 88.353075 C 185.66603 88.313018 187.72733 88.363704 190.0984 88.04912 C 192.05714 87.786679 194.00151 87.187642 195.81192 86.21581 C 199.06922 84.331386 201.23765 81.690677 202.71434 79.280537 C 204.41853 76.618053 205.58065 74.214736 206.89394 72.33066 C 207.87024 70.914193 209.12651 69.439085 210.17491 67.748067 C 212.32734 64.225073 212.93173 60.583154 212.80371 57.708899 C 212.50169 51.059151 209.34434 48.428117 208.78567 48.751828 C 208.22694 49.075534 209.93959 52.307846 209.18227 57.570614 C 208.85712 59.847881 207.94202 62.553381 206.05236 64.918461 C 205.14735 66.073453 203.85463 67.257723 202.46332 68.890863 C 200.61535 71.078666 199.11318 73.530051 197.49371 75.657728 C 196.02314 77.495842 194.41729 79.313403 192.62405 80.035859 C 191.66973 80.490133 190.51683 80.733231 189.24906 80.851424 C 187.68744 81.0005 185.95948 80.826149 183.74365 80.783879 C 181.66957 80.692742 179.20888 80.821306 176.56558 81.656949 C 173.94955 82.590357 171.71217 84.12003 169.94111 85.970273 C 168.22471 87.740658 166.87075 89.631739 165.69807 91.486635 C 163.82939 94.290217 162.36107 97.046976 160.52172 98.488541 C 158.35643 100.58889 154.2766 101.58229 149.74639 104.05876 C 146.2623 105.95658 143.44922 108.18071 140.71721 110.16751 C 140.11615 110.60114 139.50676 111.03018 138.88938 111.45544 C 138.54006 111.69606 138.18684 111.93279 137.83421 112.17014 C 138.68673 105.30166 140.77276 97.664185 141.9805 92.199057 C 142.95903 88.01755 143.4687 85.085342 144.93059 82.387627 C 146.24022 79.831444 148.28444 77.747465 150.07956 76.225019 C 153.09691 73.673766 155.83065 72.234153 157.25535 71.226201 C 158.11396 70.619818 158.53418 70.197523 158.44378 69.948314 C 158.35342 69.699107 157.75564 69.633299 156.68988 69.778994 C 155.1401 69.989678 151.60605 70.833079 147.84417 72.997443 C 145.47757 74.355855 142.69542 76.479873 140.48674 79.665272 C 138.25666 83.001746 137.08859 86.563407 135.87813 90.566557 C 133.9132 96.777069 130.68172 105.96201 129.68312 115.01024 C 129.59313 115.87475 129.52751 116.7437 129.47455 117.61531 C 129.08069 117.9108 128.68194 118.225 128.27881 118.5687 C 126.70021 119.86893 125.31498 121.71829 124.4415 124.07867 C 123.72398 126.56201 123.71111 128.66436 123.87193 130.22394 C 123.89733 131.80245 124.05361 132.88707 123.82036 133.43189 C 123.79549 134.28974 122.62861 135.42436 121.34172 137.01636 C 120.27639 138.18667 119.23264 139.31418 118.18944 140.40048 C 118.60924 138.21282 119.00677 135.95484 119.32357 133.5971 C 119.49856 132.32304 119.64084 131.01975 119.74116 129.69499 C 120.40352 129.18465 121.05729 128.58246 121.68081 127.8667 C 122.75727 126.51799 123.47421 125.03751 123.8409 123.53694 C 124.20559 122.06137 124.32447 120.63393 124.25667 119.30486 C 124.1058 116.67737 123.56257 114.52106 123.17092 112.71918 C 122.68977 110.3887 122.39072 107.96912 122.21296 105.47265 C 122.18636 105.09901 122.16261 104.72462 122.14131 104.34993 C 122.05317 102.77401 122.01484 101.19951 122.01991 99.629967 C 122.12593 99.457125 122.24457 99.262852 122.34714 99.097362 C 122.81099 98.361862 123.259 97.674266 123.6985 97.002541 C 124.32078 96.575126 124.98752 96.147068 125.55737 95.744736 C 127.31419 94.591178 128.62678 93.212784 129.40518 91.731259 C 130.82253 88.895056 129.59722 87.452965 129.29838 87.435735 C 129.23313 87.431973 129.16843 87.447791 129.10305 87.477266 C 130.43582 84.380023 131.49253 81.199797 132.18823 79.283732 C 134.58394 72.704196 136.40762 68.8661 135.6577 68.358714 C 134.90778 67.851334 131.63179 70.780192 127.77861 77.156963 C 126.343 79.528162 124.95463 82.345619 123.25991 85.109069 C 124.3282 78.83618 126.09907 73.116848 128.9278 68.140105 C 131.28143 63.875515 135.16621 59.104613 138.0478 54.950946 C 140.16524 51.923983 141.64772 49.46489 143.56918 47.219733 C 145.62237 44.878023 147.69477 43.07544 149.98509 42.242365 C 151.51033 41.610379 153.76137 41.305289 155.81088 40.839884 C 158.29247 40.361035 160.74363 39.410728 162.80229 37.713626 C 164.74093 35.977771 165.79596 33.863224 166.311 31.983674 C 166.93881 29.727448 167.00557 27.594902 166.95907 25.98993 C 166.8393 21.066345 165.89307 18.498397 165.3325 18.546697 z M 115.2964 63.605433 C 115.30196 63.632739 115.31016 63.661252 115.31557 63.688496 C 116.61201 69.309855 115.73121 75.673877 113.36086 82.638184 C 112.84178 84.088646 112.29871 85.475493 111.63708 86.684064 C 110.96828 87.978594 110.08824 89.208982 109.0667 90.441963 C 107.9883 84.805016 106.2427 81.93445 105.45257 82.136613 C 104.65151 82.341552 104.88185 85.610818 104.59912 90.990085 C 104.52528 92.395068 104.40337 93.966614 104.19932 95.660304 C 103.45921 96.399159 102.70761 97.151118 101.93336 97.961412 C 101.64787 97.020462 101.36137 96.113061 101.07717 95.210762 C 100.77895 93.620795 100.34672 92.115143 99.823019 90.706212 C 99.173912 87.385181 98.943517 84.296389 99.980473 81.962729 C 100.32284 81.003015 101.03978 79.827548 101.78777 78.387842 C 103.15478 75.967684 103.82915 74.068009 104.8871 73.204186 C 105.61104 72.352528 107.31361 71.570647 109.26934 70.136346 C 111.80091 68.227183 113.76513 65.962273 115.2964 63.605433 z M 113.23307 98.599443 C 113.23233 98.63942 113.23193 98.679479 113.23124 98.719473 C 112.404 99.813703 111.57475 100.82616 110.72704 101.62438 C 110.65378 101.58787 110.58055 101.5515 110.50661 101.51622 C 110.74682 101.26257 110.98585 101.01318 111.22542 100.75725 C 111.90209 100.05733 112.57352 99.338657 113.23307 98.599443 z M 95.119028 138.30703 A 4.5042539 2.1196489 0 0 1 99.623578 140.42695 A 4.5042539 2.1196489 0 0 1 95.119028 142.54642 A 4.5042539 2.1196489 0 0 1 90.614934 140.42695 A 4.5042539 2.1196489 0 0 1 95.119028 138.30703 z M 107.57203 138.30703 A 4.7692099 2.1196489 0 0 1 112.34129 140.42695 A 4.7692099 2.1196489 0 0 1 107.57203 142.54642 A 4.7692099 2.1196489 0 0 1 102.80278 140.42695 A 4.7692099 2.1196489 0 0 1 107.57203 138.30703 z M 102.97757 184.65187 C 103.87382 193.92238 104.23422 200.70127 104.68355 204.12914 C 104.51738 203.63838 104.34527 203.13457 104.17331 202.59704 C 103.89947 201.65825 103.67441 200.65194 103.48736 199.53559 C 103.05054 197.03853 102.98647 194.42797 103.01317 191.13394 C 103.01317 191.11633 103.01776 190.94663 103.01819 190.92903 C 103.04705 189.75868 103.06318 188.39972 102.87991 186.82108 C 102.84486 186.08041 102.70731 185.57371 102.6362 185.48204 C 102.6982 185.34383 102.7765 185.16521 102.87899 184.90105 C 102.91306 184.81847 102.94487 184.73499 102.97757 184.65187 z M 102.59375 185.57696 C 102.59436 185.59944 102.59567 185.62439 102.59831 185.65409 C 102.50238 185.77842 102.51804 185.74383 102.59375 185.57696 z " />
  </g>
</svg>
