<?xml version="1.0" encoding="UTF-8" standalone="no"?>
<!-- Created with Inkscape (http://www.inkscape.org/) -->

<svg
   width="1000"
   height="1000"
   viewBox="0 0 233.67068 233.67068"
   version="1.1"
   id="svg5"
   sodipodi:docname="tree.svg"
   inkscape:version="1.2.1 (9c6d41e4, 2022-07-14)"
   xmlns:inkscape="http://www.inkscape.org/namespaces/inkscape"
   xmlns:sodipodi="http://sodipodi.sourceforge.net/DTD/sodipodi-0.dtd"
   xmlns="http://www.w3.org/2000/svg"
   xmlns:svg="http://www.w3.org/2000/svg">
  <sodipodi:namedview
     id="namedview7"
     pagecolor="#ffffff"
     bordercolor="#000000"
     borderopacity="0.25"
     inkscape:showpageshadow="2"
     inkscape:pageopacity="0.0"
     inkscape:pagecheckerboard="0"
     inkscape:deskcolor="#d1d1d1"
     inkscape:document-units="mm"
     showgrid="false"
     inkscape:zoom="0.4409611"
     inkscape:cx="768.7753"
     inkscape:cy="632.70887"
     inkscape:window-width="1639"
     inkscape:window-height="846"
     inkscape:window-x="0"
     inkscape:window-y="25"
     inkscape:window-maximized="0"
     inkscape:current-layer="layer1" />
  <defs
     id="defs2">
    <inkscape:path-effect
       effect="skeletal"
       id="path-effect1730"
       is_visible="true"
       lpeversion="1"
       pattern="M 0,4.4088808 C 0,1.9751786 1.9751786,0 4.4088808,0 c 2.4337021,0 4.4088807,1.9751786 4.4088807,4.4088808 0,2.4337021 -1.9751786,4.4088807 -4.4088807,4.4088807 C 1.9751786,8.8177615 0,6.8425829 0,4.4088808 Z"
       copytype="single_stretched"
       prop_scale="1"
       scale_y_rel="false"
       spacing="0"
       normal_offset="0"
       tang_offset="0"
       prop_units="false"
       vertical_pattern="false"
       hide_knot="false"
       fuse_tolerance="0" />
    <inkscape:path-effect
       effect="spiro"
       id="path-effect1728"
       is_visible="true"
       lpeversion="1" />
    <inkscape:path-effect
       effect="simplify"
       id="path-effect1726"
       is_visible="true"
       lpeversion="1"
       steps="1"
       threshold="0.00228916"
       smooth_angles="360"
       helper_size="0"
       simplify_individual_paths="false"
       simplify_just_coalesce="false" />
    <inkscape:path-effect
       effect="skeletal"
       id="path-effect1722"
       is_visible="true"
       lpeversion="1"
       pattern="M 0,4.4088808 C 0,1.9751786 1.9751786,0 4.4088808,0 c 2.4337021,0 4.4088807,1.9751786 4.4088807,4.4088808 0,2.4337021 -1.9751786,4.4088807 -4.4088807,4.4088807 C 1.9751786,8.8177615 0,6.8425829 0,4.4088808 Z"
       copytype="single_stretched"
       prop_scale="1"
       scale_y_rel="false"
       spacing="0"
       normal_offset="0"
       tang_offset="0"
       prop_units="false"
       vertical_pattern="false"
       hide_knot="false"
       fuse_tolerance="0" />
    <inkscape:path-effect
       effect="spiro"
       id="path-effect1720"
       is_visible="true"
       lpeversion="1" />
    <inkscape:path-effect
       effect="simplify"
       id="path-effect1718"
       is_visible="true"
       lpeversion="1"
       steps="1"
       threshold="0.00228916"
       smooth_angles="360"
       helper_size="0"
       simplify_individual_paths="false"
       simplify_just_coalesce="false" />
    <inkscape:path-effect
       effect="skeletal"
       id="path-effect1714"
       is_visible="true"
       lpeversion="1"
       pattern="M 0,4.4088808 C 0,1.9751786 1.9751786,0 4.4088808,0 c 2.4337021,0 4.4088807,1.9751786 4.4088807,4.4088808 0,2.4337021 -1.9751786,4.4088807 -4.4088807,4.4088807 C 1.9751786,8.8177615 0,6.8425829 0,4.4088808 Z"
       copytype="single_stretched"
       prop_scale="1"
       scale_y_rel="false"
       spacing="0"
       normal_offset="0"
       tang_offset="0"
       prop_units="false"
       vertical_pattern="false"
       hide_knot="false"
       fuse_tolerance="0" />
    <inkscape:path-effect
       effect="spiro"
       id="path-effect1712"
       is_visible="true"
       lpeversion="1" />
    <inkscape:path-effect
       effect="simplify"
       id="path-effect1710"
       is_visible="true"
       lpeversion="1"
       steps="1"
       threshold="0.00228916"
       smooth_angles="360"
       helper_size="0"
       simplify_individual_paths="false"
       simplify_just_coalesce="false" />
    <inkscape:path-effect
       effect="skeletal"
       id="path-effect1706"
       is_visible="true"
       lpeversion="1"
       pattern="M 0,4.4088808 C 0,1.9751786 1.9751786,0 4.4088808,0 c 2.4337021,0 4.4088807,1.9751786 4.4088807,4.4088808 0,2.4337021 -1.9751786,4.4088807 -4.4088807,4.4088807 C 1.9751786,8.8177615 0,6.8425829 0,4.4088808 Z"
       copytype="single_stretched"
       prop_scale="1"
       scale_y_rel="false"
       spacing="0"
       normal_offset="0"
       tang_offset="0"
       prop_units="false"
       vertical_pattern="false"
       hide_knot="false"
       fuse_tolerance="0" />
    <inkscape:path-effect
       effect="spiro"
       id="path-effect1704"
       is_visible="true"
       lpeversion="1" />
    <inkscape:path-effect
       effect="simplify"
       id="path-effect1702"
       is_visible="true"
       lpeversion="1"
       steps="1"
       threshold="0.00228916"
       smooth_angles="360"
       helper_size="0"
       simplify_individual_paths="false"
       simplify_just_coalesce="false" />
    <inkscape:path-effect
       effect="skeletal"
       id="path-effect1666"
       is_visible="true"
       lpeversion="1"
       pattern="M 0,4.4088808 C 0,1.9751786 1.9751786,0 4.4088808,0 c 2.4337021,0 4.4088807,1.9751786 4.4088807,4.4088808 0,2.4337021 -1.9751786,4.4088807 -4.4088807,4.4088807 C 1.9751786,8.8177615 0,6.8425829 0,4.4088808 Z"
       copytype="single_stretched"
       prop_scale="1"
       scale_y_rel="false"
       spacing="0"
       normal_offset="0"
       tang_offset="0"
       prop_units="false"
       vertical_pattern="false"
       hide_knot="false"
       fuse_tolerance="0" />
    <inkscape:path-effect
       effect="spiro"
       id="path-effect1664"
       is_visible="true"
       lpeversion="1" />
    <inkscape:path-effect
       effect="simplify"
       id="path-effect1662"
       is_visible="true"
       lpeversion="1"
       steps="1"
       threshold="0.00228916"
       smooth_angles="360"
       helper_size="0"
       simplify_individual_paths="false"
       simplify_just_coalesce="false" />
    <inkscape:path-effect
       effect="skeletal"
       id="path-effect1658"
       is_visible="true"
       lpeversion="1"
       pattern="M 0,4.4088808 C 0,1.9751786 1.9751786,0 4.4088808,0 c 2.4337021,0 4.4088807,1.9751786 4.4088807,4.4088808 0,2.4337021 -1.9751786,4.4088807 -4.4088807,4.4088807 C 1.9751786,8.8177615 0,6.8425829 0,4.4088808 Z"
       copytype="single_stretched"
       prop_scale="1"
       scale_y_rel="false"
       spacing="0"
       normal_offset="0"
       tang_offset="0"
       prop_units="false"
       vertical_pattern="false"
       hide_knot="false"
       fuse_tolerance="0" />
    <inkscape:path-effect
       effect="spiro"
       id="path-effect1656"
       is_visible="true"
       lpeversion="1" />
    <inkscape:path-effect
       effect="simplify"
       id="path-effect1654"
       is_visible="true"
       lpeversion="1"
       steps="1"
       threshold="0.00228916"
       smooth_angles="360"
       helper_size="0"
       simplify_individual_paths="false"
       simplify_just_coalesce="false" />
    <inkscape:path-effect
       effect="skeletal"
       id="path-effect1650"
       is_visible="true"
       lpeversion="1"
       pattern="M 0,4.4088808 C 0,1.9751786 1.9751786,0 4.4088808,0 c 2.4337021,0 4.4088807,1.9751786 4.4088807,4.4088808 0,2.4337021 -1.9751786,4.4088807 -4.4088807,4.4088807 C 1.9751786,8.8177615 0,6.8425829 0,4.4088808 Z"
       copytype="single_stretched"
       prop_scale="1"
       scale_y_rel="false"
       spacing="0"
       normal_offset="0"
       tang_offset="0"
       prop_units="false"
       vertical_pattern="false"
       hide_knot="false"
       fuse_tolerance="0" />
    <inkscape:path-effect
       effect="spiro"
       id="path-effect1648"
       is_visible="true"
       lpeversion="1" />
    <inkscape:path-effect
       effect="simplify"
       id="path-effect1646"
       is_visible="true"
       lpeversion="1"
       steps="1"
       threshold="0.00228916"
       smooth_angles="360"
       helper_size="0"
       simplify_individual_paths="false"
       simplify_just_coalesce="false" />
    <inkscape:path-effect
       effect="skeletal"
       id="path-effect1634"
       is_visible="true"
       lpeversion="1"
       pattern="M 0,4.4088808 C 0,1.9751786 1.9751786,0 4.4088808,0 c 2.4337021,0 4.4088807,1.9751786 4.4088807,4.4088808 0,2.4337021 -1.9751786,4.4088807 -4.4088807,4.4088807 C 1.9751786,8.8177615 0,6.8425829 0,4.4088808 Z"
       copytype="single_stretched"
       prop_scale="1"
       scale_y_rel="false"
       spacing="0"
       normal_offset="0"
       tang_offset="0"
       prop_units="false"
       vertical_pattern="false"
       hide_knot="false"
       fuse_tolerance="0" />
    <inkscape:path-effect
       effect="spiro"
       id="path-effect1632"
       is_visible="true"
       lpeversion="1" />
    <inkscape:path-effect
       effect="simplify"
       id="path-effect1630"
       is_visible="true"
       lpeversion="1"
       steps="1"
       threshold="0.00228916"
       smooth_angles="360"
       helper_size="0"
       simplify_individual_paths="false"
       simplify_just_coalesce="false" />
    <inkscape:path-effect
       effect="skeletal"
       id="path-effect1626"
       is_visible="true"
       lpeversion="1"
       pattern="M 0,4.4088808 C 0,1.9751786 1.9751786,0 4.4088808,0 c 2.4337021,0 4.4088807,1.9751786 4.4088807,4.4088808 0,2.4337021 -1.9751786,4.4088807 -4.4088807,4.4088807 C 1.9751786,8.8177615 0,6.8425829 0,4.4088808 Z"
       copytype="single_stretched"
       prop_scale="1"
       scale_y_rel="false"
       spacing="0"
       normal_offset="0"
       tang_offset="0"
       prop_units="false"
       vertical_pattern="false"
       hide_knot="false"
       fuse_tolerance="0" />
    <inkscape:path-effect
       effect="spiro"
       id="path-effect1624"
       is_visible="true"
       lpeversion="1" />
    <inkscape:path-effect
       effect="simplify"
       id="path-effect1622"
       is_visible="true"
       lpeversion="1"
       steps="1"
       threshold="0.00228916"
       smooth_angles="360"
       helper_size="0"
       simplify_individual_paths="false"
       simplify_just_coalesce="false" />
    <inkscape:path-effect
       effect="skeletal"
       id="path-effect1618"
       is_visible="true"
       lpeversion="1"
       pattern="M 0,4.4088808 C 0,1.9751786 1.9751786,0 4.4088808,0 c 2.4337021,0 4.4088807,1.9751786 4.4088807,4.4088808 0,2.4337021 -1.9751786,4.4088807 -4.4088807,4.4088807 C 1.9751786,8.8177615 0,6.8425829 0,4.4088808 Z"
       copytype="single_stretched"
       prop_scale="1"
       scale_y_rel="false"
       spacing="0"
       normal_offset="0"
       tang_offset="0"
       prop_units="false"
       vertical_pattern="false"
       hide_knot="false"
       fuse_tolerance="0" />
    <inkscape:path-effect
       effect="spiro"
       id="path-effect1616"
       is_visible="true"
       lpeversion="1" />
    <inkscape:path-effect
       effect="simplify"
       id="path-effect1614"
       is_visible="true"
       lpeversion="1"
       steps="1"
       threshold="0.00228916"
       smooth_angles="360"
       helper_size="0"
       simplify_individual_paths="false"
       simplify_just_coalesce="false" />
    <inkscape:path-effect
       effect="skeletal"
       id="path-effect1602"
       is_visible="true"
       lpeversion="1"
       pattern="M 0,4.4088808 C 0,1.9751786 1.9751786,0 4.4088808,0 c 2.4337021,0 4.4088807,1.9751786 4.4088807,4.4088808 0,2.4337021 -1.9751786,4.4088807 -4.4088807,4.4088807 C 1.9751786,8.8177615 0,6.8425829 0,4.4088808 Z"
       copytype="single_stretched"
       prop_scale="1"
       scale_y_rel="false"
       spacing="0"
       normal_offset="0"
       tang_offset="0"
       prop_units="false"
       vertical_pattern="false"
       hide_knot="false"
       fuse_tolerance="0" />
    <inkscape:path-effect
       effect="spiro"
       id="path-effect1600"
       is_visible="true"
       lpeversion="1" />
    <inkscape:path-effect
       effect="simplify"
       id="path-effect1598"
       is_visible="true"
       lpeversion="1"
       steps="1"
       threshold="0.00228916"
       smooth_angles="360"
       helper_size="0"
       simplify_individual_paths="false"
       simplify_just_coalesce="false" />
    <inkscape:path-effect
       effect="skeletal"
       id="path-effect1570"
       is_visible="true"
       lpeversion="1"
       pattern="M 0,4.4088808 C 0,1.9751786 1.9751786,0 4.4088808,0 c 2.4337021,0 4.4088807,1.9751786 4.4088807,4.4088808 0,2.4337021 -1.9751786,4.4088807 -4.4088807,4.4088807 C 1.9751786,8.8177615 0,6.8425829 0,4.4088808 Z"
       copytype="single_stretched"
       prop_scale="1"
       scale_y_rel="false"
       spacing="0"
       normal_offset="0"
       tang_offset="0"
       prop_units="false"
       vertical_pattern="false"
       hide_knot="false"
       fuse_tolerance="0" />
    <inkscape:path-effect
       effect="spiro"
       id="path-effect1568"
       is_visible="true"
       lpeversion="1" />
    <inkscape:path-effect
       effect="simplify"
       id="path-effect1566"
       is_visible="true"
       lpeversion="1"
       steps="1"
       threshold="0.00228916"
       smooth_angles="360"
       helper_size="0"
       simplify_individual_paths="false"
       simplify_just_coalesce="false" />
    <inkscape:path-effect
       effect="skeletal"
       id="path-effect1562"
       is_visible="true"
       lpeversion="1"
       pattern="M 0,4.4088808 C 0,1.9751786 1.9751786,0 4.4088808,0 c 2.4337021,0 4.4088807,1.9751786 4.4088807,4.4088808 0,2.4337021 -1.9751786,4.4088807 -4.4088807,4.4088807 C 1.9751786,8.8177615 0,6.8425829 0,4.4088808 Z"
       copytype="single_stretched"
       prop_scale="1"
       scale_y_rel="false"
       spacing="0"
       normal_offset="0"
       tang_offset="0"
       prop_units="false"
       vertical_pattern="false"
       hide_knot="false"
       fuse_tolerance="0" />
    <inkscape:path-effect
       effect="spiro"
       id="path-effect1560"
       is_visible="true"
       lpeversion="1" />
    <inkscape:path-effect
       effect="simplify"
       id="path-effect1558"
       is_visible="true"
       lpeversion="1"
       steps="1"
       threshold="0.00228916"
       smooth_angles="360"
       helper_size="0"
       simplify_individual_paths="false"
       simplify_just_coalesce="false" />
    <inkscape:path-effect
       effect="skeletal"
       id="path-effect1554"
       is_visible="true"
       lpeversion="1"
       pattern="M 0,4.4088808 C 0,1.9751786 1.9751786,0 4.4088808,0 c 2.4337021,0 4.4088807,1.9751786 4.4088807,4.4088808 0,2.4337021 -1.9751786,4.4088807 -4.4088807,4.4088807 C 1.9751786,8.8177615 0,6.8425829 0,4.4088808 Z"
       copytype="single_stretched"
       prop_scale="1"
       scale_y_rel="false"
       spacing="0"
       normal_offset="0"
       tang_offset="0"
       prop_units="false"
       vertical_pattern="false"
       hide_knot="false"
       fuse_tolerance="0" />
    <inkscape:path-effect
       effect="spiro"
       id="path-effect1552"
       is_visible="true"
       lpeversion="1" />
    <inkscape:path-effect
       effect="simplify"
       id="path-effect1550"
       is_visible="true"
       lpeversion="1"
       steps="1"
       threshold="0.00228916"
       smooth_angles="360"
       helper_size="0"
       simplify_individual_paths="false"
       simplify_just_coalesce="false" />
    <inkscape:path-effect
       effect="skeletal"
       id="path-effect1546"
       is_visible="true"
       lpeversion="1"
       pattern="M 0,4.4088808 C 0,1.9751786 1.9751786,0 4.4088808,0 c 2.4337021,0 4.4088807,1.9751786 4.4088807,4.4088808 0,2.4337021 -1.9751786,4.4088807 -4.4088807,4.4088807 C 1.9751786,8.8177615 0,6.8425829 0,4.4088808 Z"
       copytype="single_stretched"
       prop_scale="1"
       scale_y_rel="false"
       spacing="0"
       normal_offset="0"
       tang_offset="0"
       prop_units="false"
       vertical_pattern="false"
       hide_knot="false"
       fuse_tolerance="0" />
    <inkscape:path-effect
       effect="spiro"
       id="path-effect1544"
       is_visible="true"
       lpeversion="1" />
    <inkscape:path-effect
       effect="simplify"
       id="path-effect1542"
       is_visible="true"
       lpeversion="1"
       steps="1"
       threshold="0.00228916"
       smooth_angles="360"
       helper_size="0"
       simplify_individual_paths="false"
       simplify_just_coalesce="false" />
    <inkscape:path-effect
       effect="skeletal"
       id="path-effect1538"
       is_visible="true"
       lpeversion="1"
       pattern="M 0,4.4088808 C 0,1.9751786 1.9751786,0 4.4088808,0 c 2.4337021,0 4.4088807,1.9751786 4.4088807,4.4088808 0,2.4337021 -1.9751786,4.4088807 -4.4088807,4.4088807 C 1.9751786,8.8177615 0,6.8425829 0,4.4088808 Z"
       copytype="single_stretched"
       prop_scale="1"
       scale_y_rel="false"
       spacing="0"
       normal_offset="0"
       tang_offset="0"
       prop_units="false"
       vertical_pattern="false"
       hide_knot="false"
       fuse_tolerance="0" />
    <inkscape:path-effect
       effect="spiro"
       id="path-effect1536"
       is_visible="true"
       lpeversion="1" />
    <inkscape:path-effect
       effect="simplify"
       id="path-effect1534"
       is_visible="true"
       lpeversion="1"
       steps="1"
       threshold="0.00228916"
       smooth_angles="360"
       helper_size="0"
       simplify_individual_paths="false"
       simplify_just_coalesce="false" />
    <inkscape:path-effect
       effect="skeletal"
       id="path-effect1530"
       is_visible="true"
       lpeversion="1"
       pattern="M 0,4.4088808 C 0,1.9751786 1.9751786,0 4.4088808,0 c 2.4337021,0 4.4088807,1.9751786 4.4088807,4.4088808 0,2.4337021 -1.9751786,4.4088807 -4.4088807,4.4088807 C 1.9751786,8.8177615 0,6.8425829 0,4.4088808 Z"
       copytype="single_stretched"
       prop_scale="1"
       scale_y_rel="false"
       spacing="0"
       normal_offset="0"
       tang_offset="0"
       prop_units="false"
       vertical_pattern="false"
       hide_knot="false"
       fuse_tolerance="0" />
    <inkscape:path-effect
       effect="spiro"
       id="path-effect1528"
       is_visible="true"
       lpeversion="1" />
    <inkscape:path-effect
       effect="simplify"
       id="path-effect1526"
       is_visible="true"
       lpeversion="1"
       steps="1"
       threshold="0.00228916"
       smooth_angles="360"
       helper_size="0"
       simplify_individual_paths="false"
       simplify_just_coalesce="false" />
  </defs>
  <g
     inkscape:label="Layer 1"
     inkscape:groupmode="layer"
     id="layer1">
    <path
       id="path1524"
       style="fill:#000000;stroke:none;stroke-width:0.267428"
       d="m 173.43174,5.2989593 c -0.65887,0.053831 -0.83947,2.9927384 -1.82867,8.0228677 -0.32766,1.619903 -0.7793,3.683208 -1.63074,5.386383 -0.71486,1.404418 -1.74113,2.865543 -3.09626,3.658731 -1.35418,0.939279 -3.27811,1.255347 -5.76659,1.61322 -2.08467,0.224076 -4.99551,0.378022 -7.99812,1.171771 -4.30954,1.263294 -8.12845,3.735932 -11.26979,6.915686 -2.94417,2.922042 -5.11167,5.845394 -7.57006,8.871181 -3.23842,3.951545 -7.83747,8.912045 -11.42964,14.298249 -0.13277,-0.526158 -0.27671,-1.049247 -0.43397,-1.567448 -0.84334,-2.546769 -2.00728,-4.99035 -3.31565,-7.288984 3.44661,-9.742871 3.90117,-19.487802 3.9202,-25.611637 0.0542,-9.42283 -0.87672,-14.853619 -1.89949,-14.8790491 -1.02276,-0.025432 -2.00463,5.3327261 -3.64179,14.4238691 -0.8131,4.444326 -1.96747,11.134562 -4.12941,17.663532 -1.79226,-2.273379 -3.47206,-4.209314 -4.68355,-5.652371 -6.25948,-7.546096 -9.733043,-12.117814 -10.59067,-11.672445 -0.857617,0.445374 1.017547,5.885345 6.14531,14.489984 1.4556,2.476097 3.933,6.180991 6.14315,10.16196 -2.02109,3.907437 -4.63086,7.966139 -8.27009,10.066345 -1.40633,0.852189 -3.867615,1.959806 -6.428531,4.060003 -0.474004,0.446418 -0.900811,0.896484 -1.307817,1.346724 -0.593792,-1.205167 -1.311052,-2.246546 -2.050752,-3.123707 -1.507933,-1.884691 -2.951661,-3.27016 -3.974925,-4.578754 -1.774743,-2.184026 -3.379681,-5.603063 -4.683006,-7.977604 -2.004002,-3.800481 -4.103457,-6.452572 -6.572837,-8.280719 -3.604121,-2.617298 -6.212782,-2.500371 -6.405471,-1.991602 -0.192696,0.508762 1.902493,1.497884 4.139605,4.219698 1.661083,1.971072 2.644943,4.139411 4.089718,7.982179 0.861131,2.417909 2.038079,6.089211 4.06504,9.396037 1.187058,1.876349 2.553754,3.499544 3.557046,5.041565 0.853666,1.421426 1.616822,2.81393 1.561003,3.930314 0.08388,0.838867 -0.24434,1.88362 -0.680189,3.160324 -0.464053,1.234449 -1.194475,2.677977 -1.864084,4.508572 -0.692401,1.751838 -1.149344,3.938089 -0.920508,6.469151 0.0647,0.398618 0.143746,0.777885 0.229055,1.147359 -4.042112,-4.867953 -8.360558,-8.061033 -11.008013,-11.462911 -3.712122,-4.551068 -5.995248,-10.669829 -9.599356,-15.633274 -2.441482,-3.308487 -5.553941,-6.359309 -7.545381,-8.416 -6.968883,-7.221495 -10.61216,-12.02789 -11.560531,-11.524448 -0.948377,0.503447 0.940638,6.324958 6.932779,14.930925 1.63286,2.35336 4.402171,5.935544 5.952727,8.681479 2.499214,4.329524 4.087368,10.327628 8.475007,16.808606 3.675929,5.233163 8.64661,9.173354 11.516546,13.513508 1.108697,1.576008 2.002267,3.337309 2.787809,5.247032 -0.48421,1.200319 -0.964248,2.45615 -1.37057,3.743671 -0.54177,1.661339 -0.957925,3.517868 -1.112549,5.515548 -0.122774,-0.0813 -0.245937,-0.16881 -0.368526,-0.24868 C 74.697574,99.658141 71.83011,98.035247 69.428253,96.116801 68.146846,95.113259 66.917174,93.972757 65.714034,92.768299 64.453771,91.499065 63.176798,90.097539 61.57872,88.615735 59.502427,86.703932 57.599382,85.338287 56.314228,84.002904 53.154783,80.975147 51.056636,75.926346 47.272219,71.367716 43.793145,67.303967 39.255894,63.993205 36.436935,61.475303 33.082258,58.418552 30.457641,55.409335 26.213177,52.753138 22.463681,50.491743 19.208795,49.539726 17.054227,48.058934 13.090296,45.575092 10.63998,40.571119 9.3050066,37.7266 8.8301947,36.625019 8.505899,35.972709 8.4027365,35.228958 8.3351335,34.799695 8.3248325,34.428508 8.3802095,34.094312 8.4521195,33.657513 8.5978803,33.305363 8.7814561,33.024767 9.1669391,32.417982 9.6671705,32.125684 9.623647,31.872323 9.59716,31.718119 8.9806994,31.274832 7.7896038,31.843833 7.2734875,32.094744 6.6908247,32.547022 6.2597137,33.24701 5.932026,33.777289 5.6813898,34.419211 5.5741612,35.13944 c -0.1639245,1.179528 -0.037556,2.362359 0.2397826,3.59516 0.6498886,3.354035 2.3546109,9.23303 7.4820792,13.731182 2.886864,2.383896 6.385142,3.908725 8.889665,5.77392 3.007951,2.133412 4.847276,4.881548 8.501827,8.589427 3.328624,3.435692 7.073891,6.313043 9.503873,9.640154 2.598557,3.405226 4.48712,8.523934 8.991585,13.597425 1.97583,2.111684 3.984375,3.687494 5.475307,5.141758 1.140142,1.101623 2.314297,2.469588 3.723339,3.952187 1.362133,1.440667 2.856641,2.877347 4.518322,4.243607 3.140428,2.5441 6.225294,4.39498 9.079559,6.34454 3.438572,2.43062 6.665036,4.96052 8.562444,7.95472 0.552288,0.83928 1.026396,1.70995 1.398465,2.5953 0.116283,0.37065 0.23866,0.74484 0.373353,1.127 0.04894,0.12985 0.10147,0.24941 0.151271,0.37687 0.03575,0.11561 0.06115,0.23666 0.0928,0.35447 -0.968214,3.65068 -1.967291,7.28354 -2.58075,11.35662 -0.680548,4.83111 -0.662545,9.58954 -0.484394,13.9097 -0.550101,4.80483 -0.814065,9.36061 -1.314781,13.60455 -0.459234,3.78971 -1.075867,7.50081 -1.12435,11.68769 -0.02327,2.93671 0.229687,5.56615 0.389446,7.94303 -0.563883,0.12413 -1.187951,0.2351 -1.87374,0.35091 -1.901206,0.18368 -4.350159,0.09 -7.172561,0.45214 -5.010189,0.7688 -9.196786,2.85415 -12.490161,5.13005 -3.425047,2.31925 -6.789046,5.25243 -9.270527,7.20761 -2.247726,1.7604 -4.314205,3.23101 -6.470916,5.25162 -6.436655,6.08936 -8.544616,13.18385 -8.952426,17.7993 -0.472089,5.37755 0.789547,8.1754 1.456398,8.12003 0.666857,-0.0553 0.769192,-2.91082 2.271231,-7.45326 1.288074,-3.89793 4.042575,-9.50446 9.685186,-13.80543 1.930785,-1.49157 3.861736,-2.57544 6.484863,-4.31227 3.162964,-2.08226 6.184353,-4.41853 9.385322,-6.26673 2.879382,-1.61749 6.012026,-3.0529 9.017333,-3.23865 1.689214,-0.17473 3.912359,0.0409 6.730009,-0.10068 0.05105,-2.9e-4 0.105225,-0.005 0.156639,-0.006 -0.01846,0.0322 -0.03455,0.0671 -0.05365,0.0986 -0.599011,1.21404 -1.941725,2.34806 -3.401482,3.45936 -1.611474,1.17239 -3.55145,2.27482 -5.465652,3.61448 -6.532817,4.59985 -10.308544,10.379 -12.319576,15.2844 -3.805555,9.27275 -2.212736,15.06406 -1.31371,15.08858 0.89903,0.0245 1.228202,-5.53808 5.803064,-13.07664 2.418201,-3.97965 6.218158,-8.48573 11.830355,-11.72838 1.644159,-0.9581 3.645517,-1.89303 5.836324,-3.23 0.247627,-0.14568 0.497127,-0.29972 0.747243,-0.46077 -0.536366,0.81756 -1.217669,1.7176 -1.875349,2.72039 -1.023226,1.47436 -1.80442,3.17335 -2.177892,4.99528 -0.334013,2.19234 0.03381,3.91816 0.355115,5.03497 0.780787,2.90915 1.649465,4.54407 2.526569,4.52535 0.877105,-0.0187 1.66148,-1.6879 2.329702,-4.60979 0.27612,-1.10809 0.541853,-2.54351 1.062661,-3.2595 0.386388,-0.68723 1.053,-1.29629 1.999799,-2.2535 0.501325,-0.4744 1.190588,-1.08872 1.929528,-1.82124 0.525205,2.90169 1.545389,4.35474 2.020718,4.2675 0.360955,-0.0662 0.432101,-1.0142 0.601871,-2.63546 0.285951,0.22581 0.51319,0.32502 0.643712,0.27361 0.420749,-0.16573 0.175577,-1.61442 -0.113722,-4.04678 0.164888,-0.89149 0.37847,-1.86117 0.657123,-2.90298 0.713678,-1.25976 1.324695,-2.57183 1.849595,-3.92573 -0.01288,0.58515 -0.04068,1.24947 -0.04934,2.02719 -9.09e-4,0.0856 -0.0022,0.17203 -0.0022,0.25939 -0.04728,2.33582 0.121617,4.61176 0.519264,6.79871 0.230142,10.23901 0.495578,16.46658 1.499309,16.55278 0.636347,0.0547 1.555184,-2.32448 2.492772,-6.68377 1.984901,2.87745 3.591978,3.92804 4.462536,5.03088 0.950117,1.10189 1.555889,2.14262 2.387649,2.24336 0.73504,0.089 1.9465,-0.78255 2.18325,-3.1181 0.0902,-1.21013 -0.0503,-2.29863 -0.31757,-3.37851 9.3e-4,5e-5 0.002,9.7e-4 0.002,0.001 0.66884,0.0344 1.6075,-2.95642 2.32594,-8.38701 0.78864,1.42599 1.72314,2.71793 2.84842,3.84539 4.23072,4.04596 7.69035,2.74854 7.90533,2.17978 0.38395,-1.01581 -1.81671,-2.66214 -2.96966,-5.56592 -0.76299,-1.69293 -0.84222,-3.10709 -1.24505,-5.79223 2.92821,2.46595 4.90803,3.53941 5.46029,3.09065 0.87679,-0.71247 -1.95985,-5.1697 -6.60931,-12.42667 0.13278,0.0399 0.26027,0.0512 0.38087,0.0258 0.27091,-0.0566 0.49986,-0.2904 0.68609,-0.68098 3.17222,6.41528 6.18835,9.63612 7.25087,9.57607 3.98139,6.76521 7.10607,10.49866 8.25722,10.00124 1.03448,-0.44702 0.32741,-4.22975 -1.47946,-10.30892 1.44059,0.97835 2.74214,1.80859 3.80971,2.6497 3.67758,2.77359 6.52682,6.78621 9.72969,9.86139 8.3119,8.00131 15.46411,9.36185 15.96782,8.42719 0.50377,-0.93468 -5.37797,-4.124 -11.4409,-12.0905 -1.79562,-2.36601 -5.24338,-7.92577 -9.03397,-11.59107 -1.83972,-1.72325 -3.78881,-3.14324 -5.41684,-4.5335 -4.86885,-4.22632 -9.43083,-10.39548 -10.34016,-17.33295 -0.55759,-3.65669 -0.042,-8.29929 -1.00312,-13.82273 0.37434,-0.23044 0.74999,-0.45679 1.12114,-0.69574 0.4701,-0.30668 0.93089,-0.61594 1.38344,-0.92662 3.07992,-2.11444 5.71839,-4.23589 8.29208,-5.89548 1.38507,-0.88913 3.06014,-1.86969 4.86647,-3.25289 3.24754,-2.49759 5.73186,-5.8547 7.05347,-9.71491 1.668,-5.7503 0.92808,-11.00328 0.33741,-15.03112 -0.19596,-1.70687 -0.34781,-3.37797 -0.44683,-5.01818 2.48608,-1.44894 4.9983,-2.97101 7.48851,-4.59756 0.7842,-0.51223 1.56317,-1.03214 2.3356,-1.56136 3.52444,-2.39703 6.41526,-4.65655 9.4395,-6.18994 4.09286,-2.06504 9.31473,-3.54873 14.44543,-7.66634 3.71129,-3.341314 5.90531,-7.107517 7.68699,-10.041433 1.2108,-1.876326 2.31676,-3.5191 3.58281,-4.801515 1.30524,-1.295918 2.64414,-2.335507 4.01945,-2.803807 1.33381,-0.573425 3.23585,-0.671966 5.32725,-0.771009 2.26433,-0.04464 4.68713,0.01185 7.47403,-0.338716 2.30226,-0.292454 4.58762,-0.959998 6.71553,-2.04297 3.82853,-2.099928 6.37726,-5.042631 8.11292,-7.728398 2.00306,-2.966968 3.36899,-5.645133 4.91259,-7.744673 1.14752,-1.578457 2.62411,-3.222259 3.85637,-5.106663 2.52992,-3.925889 3.24029,-7.984302 3.08982,-11.18726 -0.35498,-7.41022 -4.06605,-10.342142 -4.72269,-9.981412 -0.65672,0.360726 1.35629,3.962688 0.46615,9.827313 -0.38218,2.537698 -1.45776,5.552602 -3.67881,8.188155 -1.06373,1.287079 -2.58317,2.606783 -4.21847,4.426691 -2.17206,2.438002 -3.93767,5.169731 -5.84115,7.54073 -1.72848,2.048324 -3.61594,4.073744 -5.72367,4.878821 -1.1217,0.506224 -2.47677,0.777124 -3.96689,0.908833 -1.83548,0.166124 -3.86648,-0.02816 -6.47091,-0.07527 -2.43782,-0.101557 -5.33006,0.04171 -8.43692,0.972916 -3.07481,1.040153 -5.70458,2.744762 -7.78623,4.8066 -2.01742,1.972849 -3.60883,4.080196 -4.98716,6.147219 -2.1964,3.124203 -3.92222,6.196229 -6.08415,7.802651 -2.54502,2.340553 -7.34035,3.447557 -12.66505,6.207237 -4.09511,2.11486 -7.40152,4.59334 -10.61266,6.80735 -0.70647,0.48322 -1.42273,0.96133 -2.14838,1.43522 -0.41059,0.26814 -0.82575,0.53194 -1.24022,0.79643 1.00203,-7.65397 3.45389,-16.164865 4.87344,-22.254992 1.15014,-4.65971 1.74919,-7.927247 3.46746,-10.933477 1.53931,-2.848511 3.94202,-5.170816 6.05197,-6.86737 3.54651,-2.843018 6.75968,-4.447267 8.43423,-5.57049 1.00919,-0.675729 1.50311,-1.146318 1.39686,-1.424026 -0.10625,-0.277708 -0.80883,-0.351041 -2.0615,-0.188685 -1.82156,0.234779 -5.9754,1.174631 -10.39702,3.586515 -2.78163,1.513762 -6.0517,3.880685 -8.64773,7.43037 -2.62117,3.718037 -3.99409,7.687014 -5.41684,12.147968 -2.30952,6.920754 -6.10772,17.156097 -7.28146,27.239097 -0.10581,0.96337 -0.1829,1.93169 -0.24514,2.90299 -0.46294,0.32928 -0.93162,0.67941 -1.40544,1.06242 -1.85545,1.44892 -3.48362,3.50977 -4.51028,6.14009 -0.84335,2.76734 -0.85848,5.11012 -0.66946,6.84805 0.0299,1.75904 0.21354,2.96769 -0.0606,3.57482 -0.0292,0.95594 -1.40075,2.22033 -2.91333,3.99438 -1.25216,1.30416 -2.47895,2.5606 -3.70511,3.77114 0.49343,-2.43785 0.96067,-4.95405 1.33303,-7.58142 0.20568,-1.41976 0.37291,-2.8721 0.49083,-4.34837 0.77852,-0.5687 1.54694,-1.23975 2.27981,-2.03736 1.26524,-1.50295 2.10791,-3.15275 2.53892,-4.82492 0.42864,-1.64432 0.56837,-3.23501 0.48867,-4.71607 -0.17732,-2.92798 -0.81582,-5.33088 -1.27615,-7.33883 -0.56553,-2.59699 -0.91703,-5.29328 -1.12597,-8.07525 -0.0313,-0.41637 -0.0592,-0.83357 -0.0842,-1.25111 -0.10365,-1.756137 -0.14864,-3.510707 -0.14269,-5.259744 0.12461,-0.19261 0.26406,-0.409094 0.38462,-0.593507 0.5452,-0.819616 1.07177,-1.585851 1.58835,-2.334395 0.73142,-0.476295 1.51508,-0.953306 2.18487,-1.401648 2.06492,-1.285481 3.6077,-2.82151 4.52262,-4.472464 1.66592,-3.160554 0.22572,-4.767564 -0.12553,-4.786765 -0.0767,-0.0043 -0.15274,0.01343 -0.22959,0.04628 1.56651,-3.451447 2.80853,-6.995367 3.62624,-9.130556 2.81586,-7.33198 4.95936,-11.609005 4.07793,-12.174417 -0.88144,-0.565404 -4.73196,2.698402 -9.26088,9.804428 -1.68738,2.642372 -3.31923,5.782036 -5.31116,8.861517 1.25564,-6.990262 3.33708,-13.363664 6.66189,-18.909554 2.7664,-4.752292 7.33247,-10.068801 10.71941,-14.697485 2.48879,-3.373131 4.23125,-6.113449 6.48969,-8.615364 2.41326,-2.609512 4.84911,-4.61824 7.54109,-5.546586 1.79273,-0.704261 4.43855,-1.044241 6.84749,-1.562871 2.91679,-0.533611 5.79782,-1.592595 8.21751,-3.483779 2.27864,-1.93437 3.51869,-4.29074 4.12406,-6.385236 0.73791,-2.514251 0.81638,-4.890678 0.76172,-6.679196 -0.14077,-5.4866527 -1.25295,-8.3482734 -1.91183,-8.2944498 z M 114.6206,55.510664 c 0.006,0.03043 0.0161,0.0622 0.0225,0.09256 1.5238,6.264225 0.48853,13.356043 -2.29752,21.116796 -0.61011,1.616339 -1.24842,3.161787 -2.02608,4.508572 -0.7861,1.442574 -1.82047,2.813671 -3.02117,4.187657 -1.26752,-6.281595 -3.31925,-9.480442 -4.24795,-9.255161 -0.94155,0.228378 -0.67081,3.871521 -1.00313,9.865966 -0.0868,1.565659 -0.23007,3.316929 -0.46991,5.204312 -0.8699,0.823351 -1.753309,1.661305 -2.663349,2.564264 -0.33555,-1.048558 -0.672302,-2.05973 -1.006338,-3.065217 -0.350526,-1.771797 -0.858558,-3.449638 -1.474099,-5.019695 -0.762942,-3.700828 -1.033745,-7.142858 0.185066,-9.743399 0.402408,-1.069467 1.245082,-2.379362 2.124252,-3.983715 1.606738,-2.69693 2.399388,-4.813853 3.642878,-5.776464 0.8509,-0.949055 2.85205,-1.820353 5.15076,-3.418683 2.97554,-2.127495 5.28424,-4.651424 7.08406,-7.277795 z m -2.42519,38.995966 c -8.7e-4,0.04461 -10e-4,0.08921 -0.002,0.133754 -0.97231,1.219366 -1.94699,2.347613 -2.94338,3.237116 -0.0861,-0.04071 -0.17217,-0.08121 -0.25908,-0.120526 0.28234,-0.282657 0.56329,-0.560572 0.84487,-0.845772 0.79534,-0.779958 1.58453,-1.580821 2.35974,-2.404572 z m -21.290771,44.2486 a 5.2941839,2.3620544 0 0 1 5.294531,2.36235 5.2941839,2.3620544 0 0 1 -5.294531,2.36185 5.2941839,2.3620544 0 0 1 -5.294001,-2.36185 5.2941839,2.3620544 0 0 1 5.294001,-2.36235 z m 14.636931,0 a 5.6056064,2.3620544 0 0 1 5.60567,2.36235 5.6056064,2.3620544 0 0 1 -5.60567,2.36185 5.6056064,2.3620544 0 0 1 -5.60565,-2.36185 5.6056064,2.3620544 0 0 1 5.60565,-2.36235 z m -5.40021,51.64488 c 1.05343,10.3307 1.47703,17.88483 2.00517,21.70472 -0.19531,-0.54689 -0.39761,-1.10831 -0.59972,-1.70731 -0.32187,-1.04616 -0.5864,-2.16755 -0.80626,-3.41157 -0.51342,-2.78262 -0.58873,-5.69173 -0.55735,-9.36247 0,-0.0196 0.005,-0.20874 0.005,-0.22834 0.0339,-1.30419 0.0529,-2.81857 -0.16254,-4.57774 -0.04122,-0.82538 -0.202862,-1.39002 -0.286447,-1.49218 0.07293,-0.15401 0.164908,-0.35306 0.285367,-0.64743 0.04,-0.092 0.0775,-0.18505 0.11587,-0.27768 z m -0.45113,1.03089 c 7.14e-4,0.025 0.0022,0.0528 0.0054,0.0859 -0.112745,0.13856 -0.09435,0.10007 -0.0054,-0.0859 z" />
  </g>
</svg>
