<?xml version="1.0" encoding="UTF-8" standalone="no"?>
<!-- Created with Inkscape (http://www.inkscape.org/) -->

<svg
   width="1000"
   height="1000"
   viewBox="0 0 233.67068 233.67068"
   version="1.1"
   id="svg5"
   sodipodi:docname="tree.svg"
   inkscape:version="1.2.1 (9c6d41e4, 2022-07-14)"
   xmlns:inkscape="http://www.inkscape.org/namespaces/inkscape"
   xmlns:sodipodi="http://sodipodi.sourceforge.net/DTD/sodipodi-0.dtd"
   xmlns="http://www.w3.org/2000/svg"
   xmlns:svg="http://www.w3.org/2000/svg">
  <sodipodi:namedview
     id="namedview7"
     pagecolor="#ffffff"
     bordercolor="#000000"
     borderopacity="0.25"
     inkscape:showpageshadow="2"
     inkscape:pageopacity="0.0"
     inkscape:pagecheckerboard="0"
     inkscape:deskcolor="#d1d1d1"
     inkscape:document-units="mm"
     showgrid="false"
     inkscape:zoom="0.4409611"
     inkscape:cx="875.36066"
     inkscape:cy="632.70887"
     inkscape:window-width="1639"
     inkscape:window-height="846"
     inkscape:window-x="0"
     inkscape:window-y="25"
     inkscape:window-maximized="0"
     inkscape:current-layer="layer1" />
  <defs
     id="defs2">
    <inkscape:path-effect
       effect="skeletal"
       id="path-effect1730"
       is_visible="true"
       lpeversion="1"
       pattern="M 0,4.4088808 C 0,1.9751786 1.9751786,0 4.4088808,0 c 2.4337021,0 4.4088807,1.9751786 4.4088807,4.4088808 0,2.4337021 -1.9751786,4.4088807 -4.4088807,4.4088807 C 1.9751786,8.8177615 0,6.8425829 0,4.4088808 Z"
       copytype="single_stretched"
       prop_scale="1"
       scale_y_rel="false"
       spacing="0"
       normal_offset="0"
       tang_offset="0"
       prop_units="false"
       vertical_pattern="false"
       hide_knot="false"
       fuse_tolerance="0" />
    <inkscape:path-effect
       effect="spiro"
       id="path-effect1728"
       is_visible="true"
       lpeversion="1" />
    <inkscape:path-effect
       effect="simplify"
       id="path-effect1726"
       is_visible="true"
       lpeversion="1"
       steps="1"
       threshold="0.00228916"
       smooth_angles="360"
       helper_size="0"
       simplify_individual_paths="false"
       simplify_just_coalesce="false" />
    <inkscape:path-effect
       effect="skeletal"
       id="path-effect1722"
       is_visible="true"
       lpeversion="1"
       pattern="M 0,4.4088808 C 0,1.9751786 1.9751786,0 4.4088808,0 c 2.4337021,0 4.4088807,1.9751786 4.4088807,4.4088808 0,2.4337021 -1.9751786,4.4088807 -4.4088807,4.4088807 C 1.9751786,8.8177615 0,6.8425829 0,4.4088808 Z"
       copytype="single_stretched"
       prop_scale="1"
       scale_y_rel="false"
       spacing="0"
       normal_offset="0"
       tang_offset="0"
       prop_units="false"
       vertical_pattern="false"
       hide_knot="false"
       fuse_tolerance="0" />
    <inkscape:path-effect
       effect="spiro"
       id="path-effect1720"
       is_visible="true"
       lpeversion="1" />
    <inkscape:path-effect
       effect="simplify"
       id="path-effect1718"
       is_visible="true"
       lpeversion="1"
       steps="1"
       threshold="0.00228916"
       smooth_angles="360"
       helper_size="0"
       simplify_individual_paths="false"
       simplify_just_coalesce="false" />
    <inkscape:path-effect
       effect="skeletal"
       id="path-effect1714"
       is_visible="true"
       lpeversion="1"
       pattern="M 0,4.4088808 C 0,1.9751786 1.9751786,0 4.4088808,0 c 2.4337021,0 4.4088807,1.9751786 4.4088807,4.4088808 0,2.4337021 -1.9751786,4.4088807 -4.4088807,4.4088807 C 1.9751786,8.8177615 0,6.8425829 0,4.4088808 Z"
       copytype="single_stretched"
       prop_scale="1"
       scale_y_rel="false"
       spacing="0"
       normal_offset="0"
       tang_offset="0"
       prop_units="false"
       vertical_pattern="false"
       hide_knot="false"
       fuse_tolerance="0" />
    <inkscape:path-effect
       effect="spiro"
       id="path-effect1712"
       is_visible="true"
       lpeversion="1" />
    <inkscape:path-effect
       effect="simplify"
       id="path-effect1710"
       is_visible="true"
       lpeversion="1"
       steps="1"
       threshold="0.00228916"
       smooth_angles="360"
       helper_size="0"
       simplify_individual_paths="false"
       simplify_just_coalesce="false" />
    <inkscape:path-effect
       effect="skeletal"
       id="path-effect1706"
       is_visible="true"
       lpeversion="1"
       pattern="M 0,4.4088808 C 0,1.9751786 1.9751786,0 4.4088808,0 c 2.4337021,0 4.4088807,1.9751786 4.4088807,4.4088808 0,2.4337021 -1.9751786,4.4088807 -4.4088807,4.4088807 C 1.9751786,8.8177615 0,6.8425829 0,4.4088808 Z"
       copytype="single_stretched"
       prop_scale="1"
       scale_y_rel="false"
       spacing="0"
       normal_offset="0"
       tang_offset="0"
       prop_units="false"
       vertical_pattern="false"
       hide_knot="false"
       fuse_tolerance="0" />
    <inkscape:path-effect
       effect="spiro"
       id="path-effect1704"
       is_visible="true"
       lpeversion="1" />
    <inkscape:path-effect
       effect="simplify"
       id="path-effect1702"
       is_visible="true"
       lpeversion="1"
       steps="1"
       threshold="0.00228916"
       smooth_angles="360"
       helper_size="0"
       simplify_individual_paths="false"
       simplify_just_coalesce="false" />
    <inkscape:path-effect
       effect="skeletal"
       id="path-effect1666"
       is_visible="true"
       lpeversion="1"
       pattern="M 0,4.4088808 C 0,1.9751786 1.9751786,0 4.4088808,0 c 2.4337021,0 4.4088807,1.9751786 4.4088807,4.4088808 0,2.4337021 -1.9751786,4.4088807 -4.4088807,4.4088807 C 1.9751786,8.8177615 0,6.8425829 0,4.4088808 Z"
       copytype="single_stretched"
       prop_scale="1"
       scale_y_rel="false"
       spacing="0"
       normal_offset="0"
       tang_offset="0"
       prop_units="false"
       vertical_pattern="false"
       hide_knot="false"
       fuse_tolerance="0" />
    <inkscape:path-effect
       effect="spiro"
       id="path-effect1664"
       is_visible="true"
       lpeversion="1" />
    <inkscape:path-effect
       effect="simplify"
       id="path-effect1662"
       is_visible="true"
       lpeversion="1"
       steps="1"
       threshold="0.00228916"
       smooth_angles="360"
       helper_size="0"
       simplify_individual_paths="false"
       simplify_just_coalesce="false" />
    <inkscape:path-effect
       effect="skeletal"
       id="path-effect1658"
       is_visible="true"
       lpeversion="1"
       pattern="M 0,4.4088808 C 0,1.9751786 1.9751786,0 4.4088808,0 c 2.4337021,0 4.4088807,1.9751786 4.4088807,4.4088808 0,2.4337021 -1.9751786,4.4088807 -4.4088807,4.4088807 C 1.9751786,8.8177615 0,6.8425829 0,4.4088808 Z"
       copytype="single_stretched"
       prop_scale="1"
       scale_y_rel="false"
       spacing="0"
       normal_offset="0"
       tang_offset="0"
       prop_units="false"
       vertical_pattern="false"
       hide_knot="false"
       fuse_tolerance="0" />
    <inkscape:path-effect
       effect="spiro"
       id="path-effect1656"
       is_visible="true"
       lpeversion="1" />
    <inkscape:path-effect
       effect="simplify"
       id="path-effect1654"
       is_visible="true"
       lpeversion="1"
       steps="1"
       threshold="0.00228916"
       smooth_angles="360"
       helper_size="0"
       simplify_individual_paths="false"
       simplify_just_coalesce="false" />
    <inkscape:path-effect
       effect="skeletal"
       id="path-effect1650"
       is_visible="true"
       lpeversion="1"
       pattern="M 0,4.4088808 C 0,1.9751786 1.9751786,0 4.4088808,0 c 2.4337021,0 4.4088807,1.9751786 4.4088807,4.4088808 0,2.4337021 -1.9751786,4.4088807 -4.4088807,4.4088807 C 1.9751786,8.8177615 0,6.8425829 0,4.4088808 Z"
       copytype="single_stretched"
       prop_scale="1"
       scale_y_rel="false"
       spacing="0"
       normal_offset="0"
       tang_offset="0"
       prop_units="false"
       vertical_pattern="false"
       hide_knot="false"
       fuse_tolerance="0" />
    <inkscape:path-effect
       effect="spiro"
       id="path-effect1648"
       is_visible="true"
       lpeversion="1" />
    <inkscape:path-effect
       effect="simplify"
       id="path-effect1646"
       is_visible="true"
       lpeversion="1"
       steps="1"
       threshold="0.00228916"
       smooth_angles="360"
       helper_size="0"
       simplify_individual_paths="false"
       simplify_just_coalesce="false" />
    <inkscape:path-effect
       effect="skeletal"
       id="path-effect1634"
       is_visible="true"
       lpeversion="1"
       pattern="M 0,4.4088808 C 0,1.9751786 1.9751786,0 4.4088808,0 c 2.4337021,0 4.4088807,1.9751786 4.4088807,4.4088808 0,2.4337021 -1.9751786,4.4088807 -4.4088807,4.4088807 C 1.9751786,8.8177615 0,6.8425829 0,4.4088808 Z"
       copytype="single_stretched"
       prop_scale="1"
       scale_y_rel="false"
       spacing="0"
       normal_offset="0"
       tang_offset="0"
       prop_units="false"
       vertical_pattern="false"
       hide_knot="false"
       fuse_tolerance="0" />
    <inkscape:path-effect
       effect="spiro"
       id="path-effect1632"
       is_visible="true"
       lpeversion="1" />
    <inkscape:path-effect
       effect="simplify"
       id="path-effect1630"
       is_visible="true"
       lpeversion="1"
       steps="1"
       threshold="0.00228916"
       smooth_angles="360"
       helper_size="0"
       simplify_individual_paths="false"
       simplify_just_coalesce="false" />
    <inkscape:path-effect
       effect="skeletal"
       id="path-effect1626"
       is_visible="true"
       lpeversion="1"
       pattern="M 0,4.4088808 C 0,1.9751786 1.9751786,0 4.4088808,0 c 2.4337021,0 4.4088807,1.9751786 4.4088807,4.4088808 0,2.4337021 -1.9751786,4.4088807 -4.4088807,4.4088807 C 1.9751786,8.8177615 0,6.8425829 0,4.4088808 Z"
       copytype="single_stretched"
       prop_scale="1"
       scale_y_rel="false"
       spacing="0"
       normal_offset="0"
       tang_offset="0"
       prop_units="false"
       vertical_pattern="false"
       hide_knot="false"
       fuse_tolerance="0" />
    <inkscape:path-effect
       effect="spiro"
       id="path-effect1624"
       is_visible="true"
       lpeversion="1" />
    <inkscape:path-effect
       effect="simplify"
       id="path-effect1622"
       is_visible="true"
       lpeversion="1"
       steps="1"
       threshold="0.00228916"
       smooth_angles="360"
       helper_size="0"
       simplify_individual_paths="false"
       simplify_just_coalesce="false" />
    <inkscape:path-effect
       effect="skeletal"
       id="path-effect1618"
       is_visible="true"
       lpeversion="1"
       pattern="M 0,4.4088808 C 0,1.9751786 1.9751786,0 4.4088808,0 c 2.4337021,0 4.4088807,1.9751786 4.4088807,4.4088808 0,2.4337021 -1.9751786,4.4088807 -4.4088807,4.4088807 C 1.9751786,8.8177615 0,6.8425829 0,4.4088808 Z"
       copytype="single_stretched"
       prop_scale="1"
       scale_y_rel="false"
       spacing="0"
       normal_offset="0"
       tang_offset="0"
       prop_units="false"
       vertical_pattern="false"
       hide_knot="false"
       fuse_tolerance="0" />
    <inkscape:path-effect
       effect="spiro"
       id="path-effect1616"
       is_visible="true"
       lpeversion="1" />
    <inkscape:path-effect
       effect="simplify"
       id="path-effect1614"
       is_visible="true"
       lpeversion="1"
       steps="1"
       threshold="0.00228916"
       smooth_angles="360"
       helper_size="0"
       simplify_individual_paths="false"
       simplify_just_coalesce="false" />
    <inkscape:path-effect
       effect="skeletal"
       id="path-effect1602"
       is_visible="true"
       lpeversion="1"
       pattern="M 0,4.4088808 C 0,1.9751786 1.9751786,0 4.4088808,0 c 2.4337021,0 4.4088807,1.9751786 4.4088807,4.4088808 0,2.4337021 -1.9751786,4.4088807 -4.4088807,4.4088807 C 1.9751786,8.8177615 0,6.8425829 0,4.4088808 Z"
       copytype="single_stretched"
       prop_scale="1"
       scale_y_rel="false"
       spacing="0"
       normal_offset="0"
       tang_offset="0"
       prop_units="false"
       vertical_pattern="false"
       hide_knot="false"
       fuse_tolerance="0" />
    <inkscape:path-effect
       effect="spiro"
       id="path-effect1600"
       is_visible="true"
       lpeversion="1" />
    <inkscape:path-effect
       effect="simplify"
       id="path-effect1598"
       is_visible="true"
       lpeversion="1"
       steps="1"
       threshold="0.00228916"
       smooth_angles="360"
       helper_size="0"
       simplify_individual_paths="false"
       simplify_just_coalesce="false" />
    <inkscape:path-effect
       effect="skeletal"
       id="path-effect1570"
       is_visible="true"
       lpeversion="1"
       pattern="M 0,4.4088808 C 0,1.9751786 1.9751786,0 4.4088808,0 c 2.4337021,0 4.4088807,1.9751786 4.4088807,4.4088808 0,2.4337021 -1.9751786,4.4088807 -4.4088807,4.4088807 C 1.9751786,8.8177615 0,6.8425829 0,4.4088808 Z"
       copytype="single_stretched"
       prop_scale="1"
       scale_y_rel="false"
       spacing="0"
       normal_offset="0"
       tang_offset="0"
       prop_units="false"
       vertical_pattern="false"
       hide_knot="false"
       fuse_tolerance="0" />
    <inkscape:path-effect
       effect="spiro"
       id="path-effect1568"
       is_visible="true"
       lpeversion="1" />
    <inkscape:path-effect
       effect="simplify"
       id="path-effect1566"
       is_visible="true"
       lpeversion="1"
       steps="1"
       threshold="0.00228916"
       smooth_angles="360"
       helper_size="0"
       simplify_individual_paths="false"
       simplify_just_coalesce="false" />
    <inkscape:path-effect
       effect="skeletal"
       id="path-effect1562"
       is_visible="true"
       lpeversion="1"
       pattern="M 0,4.4088808 C 0,1.9751786 1.9751786,0 4.4088808,0 c 2.4337021,0 4.4088807,1.9751786 4.4088807,4.4088808 0,2.4337021 -1.9751786,4.4088807 -4.4088807,4.4088807 C 1.9751786,8.8177615 0,6.8425829 0,4.4088808 Z"
       copytype="single_stretched"
       prop_scale="1"
       scale_y_rel="false"
       spacing="0"
       normal_offset="0"
       tang_offset="0"
       prop_units="false"
       vertical_pattern="false"
       hide_knot="false"
       fuse_tolerance="0" />
    <inkscape:path-effect
       effect="spiro"
       id="path-effect1560"
       is_visible="true"
       lpeversion="1" />
    <inkscape:path-effect
       effect="simplify"
       id="path-effect1558"
       is_visible="true"
       lpeversion="1"
       steps="1"
       threshold="0.00228916"
       smooth_angles="360"
       helper_size="0"
       simplify_individual_paths="false"
       simplify_just_coalesce="false" />
    <inkscape:path-effect
       effect="skeletal"
       id="path-effect1554"
       is_visible="true"
       lpeversion="1"
       pattern="M 0,4.4088808 C 0,1.9751786 1.9751786,0 4.4088808,0 c 2.4337021,0 4.4088807,1.9751786 4.4088807,4.4088808 0,2.4337021 -1.9751786,4.4088807 -4.4088807,4.4088807 C 1.9751786,8.8177615 0,6.8425829 0,4.4088808 Z"
       copytype="single_stretched"
       prop_scale="1"
       scale_y_rel="false"
       spacing="0"
       normal_offset="0"
       tang_offset="0"
       prop_units="false"
       vertical_pattern="false"
       hide_knot="false"
       fuse_tolerance="0" />
    <inkscape:path-effect
       effect="spiro"
       id="path-effect1552"
       is_visible="true"
       lpeversion="1" />
    <inkscape:path-effect
       effect="simplify"
       id="path-effect1550"
       is_visible="true"
       lpeversion="1"
       steps="1"
       threshold="0.00228916"
       smooth_angles="360"
       helper_size="0"
       simplify_individual_paths="false"
       simplify_just_coalesce="false" />
    <inkscape:path-effect
       effect="skeletal"
       id="path-effect1546"
       is_visible="true"
       lpeversion="1"
       pattern="M 0,4.4088808 C 0,1.9751786 1.9751786,0 4.4088808,0 c 2.4337021,0 4.4088807,1.9751786 4.4088807,4.4088808 0,2.4337021 -1.9751786,4.4088807 -4.4088807,4.4088807 C 1.9751786,8.8177615 0,6.8425829 0,4.4088808 Z"
       copytype="single_stretched"
       prop_scale="1"
       scale_y_rel="false"
       spacing="0"
       normal_offset="0"
       tang_offset="0"
       prop_units="false"
       vertical_pattern="false"
       hide_knot="false"
       fuse_tolerance="0" />
    <inkscape:path-effect
       effect="spiro"
       id="path-effect1544"
       is_visible="true"
       lpeversion="1" />
    <inkscape:path-effect
       effect="simplify"
       id="path-effect1542"
       is_visible="true"
       lpeversion="1"
       steps="1"
       threshold="0.00228916"
       smooth_angles="360"
       helper_size="0"
       simplify_individual_paths="false"
       simplify_just_coalesce="false" />
    <inkscape:path-effect
       effect="skeletal"
       id="path-effect1538"
       is_visible="true"
       lpeversion="1"
       pattern="M 0,4.4088808 C 0,1.9751786 1.9751786,0 4.4088808,0 c 2.4337021,0 4.4088807,1.9751786 4.4088807,4.4088808 0,2.4337021 -1.9751786,4.4088807 -4.4088807,4.4088807 C 1.9751786,8.8177615 0,6.8425829 0,4.4088808 Z"
       copytype="single_stretched"
       prop_scale="1"
       scale_y_rel="false"
       spacing="0"
       normal_offset="0"
       tang_offset="0"
       prop_units="false"
       vertical_pattern="false"
       hide_knot="false"
       fuse_tolerance="0" />
    <inkscape:path-effect
       effect="spiro"
       id="path-effect1536"
       is_visible="true"
       lpeversion="1" />
    <inkscape:path-effect
       effect="simplify"
       id="path-effect1534"
       is_visible="true"
       lpeversion="1"
       steps="1"
       threshold="0.00228916"
       smooth_angles="360"
       helper_size="0"
       simplify_individual_paths="false"
       simplify_just_coalesce="false" />
    <inkscape:path-effect
       effect="skeletal"
       id="path-effect1530"
       is_visible="true"
       lpeversion="1"
       pattern="M 0,4.4088808 C 0,1.9751786 1.9751786,0 4.4088808,0 c 2.4337021,0 4.4088807,1.9751786 4.4088807,4.4088808 0,2.4337021 -1.9751786,4.4088807 -4.4088807,4.4088807 C 1.9751786,8.8177615 0,6.8425829 0,4.4088808 Z"
       copytype="single_stretched"
       prop_scale="1"
       scale_y_rel="false"
       spacing="0"
       normal_offset="0"
       tang_offset="0"
       prop_units="false"
       vertical_pattern="false"
       hide_knot="false"
       fuse_tolerance="0" />
    <inkscape:path-effect
       effect="spiro"
       id="path-effect1528"
       is_visible="true"
       lpeversion="1" />
    <inkscape:path-effect
       effect="simplify"
       id="path-effect1526"
       is_visible="true"
       lpeversion="1"
       steps="1"
       threshold="0.00228916"
       smooth_angles="360"
       helper_size="0"
       simplify_individual_paths="false"
       simplify_just_coalesce="false" />
  </defs>
  <g
     inkscape:label="Layer 1"
     inkscape:groupmode="layer"
     id="layer1">
    <path
       style="fill:#000000;stroke-width:0.233671;stroke:none"
       d="m 63.589468,217.79393 c -0.764889,-0.022 -2.120214,-5.21905 1.11754,-13.54024 1.710982,-4.40203 4.923655,-9.58819 10.481755,-13.71597 1.628599,-1.20218 3.279117,-2.19133 4.650157,-3.24341 1.241956,-0.99726 2.384265,-2.01471 2.893899,-3.10416 0.492788,-0.85803 0.730932,-2.01869 0.913871,-3.37457 0.422324,-3.23929 -0.348351,-7.18393 -0.311921,-12.03331 0.04125,-3.7572 0.565747,-7.08747 0.956464,-10.48831 0.627255,-5.60752 0.80427,-11.80874 1.991057,-18.46218 0.594398,-3.2803 1.392937,-6.30946 1.799333,-9.15745 0.353944,-2.75812 0.50469,-5.42062 -0.15439,-7.62589 -0.105911,-0.40328 -0.238187,-0.80626 -0.39408,-1.20733 -0.321782,-0.82785 -0.741802,-1.64143 -1.23075,-2.42513 -1.614311,-2.68693 -4.359334,-4.95756 -7.284862,-7.13873 -2.428404,-1.74949 -5.052656,-3.4101 -7.72452,-5.69311 0,0 -7e-6,0 -7e-6,0 -1.413756,-1.22604 -2.685412,-2.51565 -3.84431,-3.80847 -1.198808,-1.33045 -2.19773,-2.55781 -3.16776,-3.546384 -1.268485,-1.305029 -2.977183,-2.719026 -4.65821,-4.614008 -3.832386,-4.552849 -5.43923,-9.1464 -7.650074,-12.20218 -2.067421,-2.985681 -5.253912,-5.567783 -8.085896,-8.650903 -3.109281,-3.327373 -4.6741,-5.793112 -7.233258,-7.707593 -2.13084,-1.67379 -5.107284,-3.042357 -7.563417,-5.181617 -4.362434,-4.036549 -5.812553,-9.312009 -6.365478,-12.321851 -0.235963,-1.106289 -0.343669,-2.167928 -0.204204,-3.226413 0,0 1e-6,-3e-6 1e-6,-3e-6 0.09123,-0.646315 0.304649,-1.222259 0.583444,-1.698124 0.366786,-0.628151 0.862338,-1.034096 1.301446,-1.259257 1.013381,-0.51062 1.537864,-0.112739 1.560404,0.02564 0.03703,0.22736 -0.38833,0.489693 -0.716296,1.034212 -0.156185,0.2518 -0.280193,0.567682 -0.341373,0.95966 -0.04711,0.299898 -0.03851,0.632919 0.01901,1.018129 0,0 0,10e-7 0,10e-7 0.08777,0.667428 0.363798,1.252719 0.767764,2.241255 1.135791,2.552616 3.220368,7.043125 6.592868,9.272073 1.833101,1.328832 4.602462,2.18326 7.792521,4.212589 3.611175,2.383616 5.843876,5.084083 8.698026,7.827151 2.39836,2.259513 6.258856,5.230459 9.218842,8.87718 3.21977,4.090822 5.004814,8.621287 7.692862,11.338335 1.093405,1.198345 2.71254,2.424115 4.479045,4.139729 1.359638,1.32974 2.445895,2.58734 3.518123,3.726328 1.023628,1.080852 2.069952,2.104004 3.160169,3.004549 0,0 6e-6,1e-5 6e-6,1e-5 2.043493,1.72157 4.483048,3.1781 7.241014,5.13227 3.429209,2.35673 6.957731,5.39862 9.658834,9.52323 0.785429,1.22791 1.464895,2.55413 2.007951,3.96446 0.26305,0.68315 0.493084,1.38341 0.687443,2.09894 0.996721,3.9648 0.889249,7.81346 0.310242,11.22285 -0.553541,3.49826 -1.404513,6.60372 -1.968432,9.4526 -1.161576,5.7728 -1.470253,11.86813 -2.348028,17.90791 -0.521978,3.66267 -1.140869,6.64327 -1.269378,9.63243 -0.181383,3.82773 0.344793,8.27144 -0.386523,12.88473 -0.30378,1.95731 -0.966611,3.97287 -2.113967,5.86517 -1.484845,2.25359 -3.348467,3.81443 -5.109286,4.90712 -1.863933,1.19976 -3.566288,2.03882 -4.965131,2.8986 -4.774843,2.90987 -8.007769,6.95324 -10.065166,10.52454 -3.89228,6.76492 -4.172483,11.7569 -4.937372,11.7349 z"
       id="path1524"
       inkscape:path-effect="#path-effect1526;#path-effect1528;#path-effect1530"
       inkscape:original-d="m 63.589468,217.79393 c -0.273331,-3.86594 0.157331,-7.6941 2.119648,-11.12816 2.445581,-4.27977 7.988628,-11.78802 12.187982,-14.30763 2.797312,-1.67839 5.179442,-3.14184 7.418771,-5.82904 0.834393,-1.00127 0.780969,-2.06405 1.059825,-3.17947 0.200461,-0.80184 0.859361,-1.84771 1.059823,-2.64956 1.2012,-4.8048 -0.815784,-10.47274 0,-15.36746 0.954159,-5.72495 1.506262,-11.65993 2.11965,-17.4871 0.41141,-3.9084 3.988662,-25.50024 2.119647,-28.61526 -1.451347,-2.41891 -7.363542,-8.28889 -9.538418,-10.06833 -1.974421,-1.61544 -5.094806,-2.44524 -6.888859,-4.2393 -0.99852,-0.99852 -1.674466,-2.73429 -2.649562,-3.70938 -0.815732,-0.81574 -2.36374,-1.30392 -3.179473,-2.119652 -0.558578,-0.558579 -0.501249,-1.561075 -1.059825,-2.119651 -0.607277,-0.607275 -2.042284,-0.982459 -2.649561,-1.589736 -4.074766,-4.074768 -7.15956,-9.459676 -10.068332,-14.30763 -1.548978,-2.581631 -4.821225,-4.821224 -6.88886,-6.888859 -2.7651,-2.7651 -4.72455,-6.590409 -7.948682,-9.008507 -2.709607,-2.032206 -6.184861,-3.416691 -9.008509,-5.299123 -2.576098,-1.717398 -8.550537,-11.298359 -7.948682,-14.30763 0.231502,-1.157512 0.554914,-3.179473 2.119648,-3.179473"
       class="UnoptimicedTransforms" />
    <path
       style="fill:#000000;stroke-width:0.233671;stroke:none"
       d="m 45.572452,215.67428 c -0.567357,0.0497 -1.64072,-2.46092 -1.23907,-7.28659 0.346962,-4.14184 2.140317,-10.50796 7.616602,-15.97246 1.834925,-1.81324 3.593453,-3.13329 5.505812,-4.71303 2.111236,-1.75453 4.973092,-4.38674 7.887112,-6.46797 2.801995,-2.04234 6.363877,-3.91326 10.62653,-4.60322 2.401295,-0.32496 4.484779,-0.24103 6.102322,-0.40586 1.493758,-0.26607 2.786603,-0.47101 3.166835,-1.05317 0.447885,-0.26482 0.862218,-1.26638 1.754239,-2.65323 1.002979,-1.72685 2.180659,-3.49096 3.609262,-5.18651 3.469437,-3.99901 7.690948,-6.91057 12.026774,-9.32045 3.98976,-2.27717 8.23642,-4.33773 11.62305,-6.6899 0.32904,-0.2249 0.65937,-0.45861 0.99226,-0.69996 2.26557,-1.64261 4.60249,-3.59786 7.29692,-5.42102 1.44251,-0.97964 2.66412,-1.68877 3.5486,-2.42189 1.55752,-1.28174 2.78951,-2.89631 3.32657,-4.58726 1.02987,-2.44631 0.41152,-6.1238 0.20315,-10.06727 -0.36045,-4.46768 -0.38166,-8.83356 0.0639,-13.11414 0,0 0,0 0,0 0.9986,-9.04828 4.2298,-18.233265 6.19473,-24.443807 1.21046,-4.00317 2.37847,-7.564802 4.60855,-10.901291 2.20868,-3.185414 4.99092,-5.309555 7.35752,-6.667977 3.76188,-2.164374 7.29583,-3.007744 8.84561,-3.218428 1.06576,-0.145695 1.66366,-0.07964 1.75402,0.169567 0.0904,0.249209 -0.32977,0.67139 -1.18838,1.277773 -1.4247,1.007957 -4.15858,2.447684 -7.17593,4.998947 -1.79512,1.522456 -3.83921,3.606235 -5.14884,6.162428 -1.46189,2.69773 -1.97137,5.63 -2.94995,9.811527 -1.41784,6.415875 -4.05276,15.829621 -4.47243,23.473031 0,0 0,10e-6 0,10e-6 -0.23082,3.71796 -0.0535,7.58063 0.39191,11.67286 0.50253,3.61449 1.13192,8.32838 -0.28721,13.48859 -1.12442,3.46406 -3.23786,6.47669 -6.00089,8.71796 -1.53681,1.24125 -2.96221,2.1211 -4.14062,2.91899 -2.18973,1.48932 -4.43442,3.39294 -7.05485,5.29038 -0.38503,0.2788 -0.77694,0.55641 -1.17691,0.83162 -4.17998,2.83842 -8.63543,4.98671 -12.34761,7.02607 -3.97046,2.24532 -7.447948,4.4204 -9.905217,7.25282 -1.048723,1.15999 -1.995432,2.51235 -2.898723,3.93791 -0.694498,1.23704 -1.753564,2.90688 -3.593585,4.57617 -2.67561,2.00063 -5.494009,2.70843 -7.849619,2.72204 -2.397252,0.12709 -4.288626,-0.0668 -5.725802,0.09 -2.556909,0.16669 -5.221911,1.45492 -7.671679,2.90641 -2.723377,1.65853 -5.293878,3.75524 -7.984921,5.6238 -2.231748,1.55859 -3.874836,2.5313 -5.517544,3.86979 -4.800713,3.85963 -7.144027,8.89064 -8.239916,12.38854 -1.277934,4.07628 -1.365235,6.63851 -1.932592,6.68817 z"
       id="path1532"
       inkscape:path-effect="#path-effect1534;#path-effect1536;#path-effect1538"
       inkscape:original-d="m 45.572452,215.67428 c 0.44417,-1.83194 -0.457175,-4.00034 0,-5.82904 1.112557,-4.45022 7.100172,-15.60022 11.128157,-18.01701 6.371061,-3.82264 12.170373,-7.67493 19.076839,-11.12816 3.469484,-1.73474 8.394411,0.0561 11.658069,-2.11965 1.113817,-0.74254 2.561128,-2.03122 3.179475,-2.64956 0.264954,-0.26496 -0.264957,-1.32478 0,-1.58974 0.714574,-0.71457 2.067518,-3.57212 3.179473,-4.23929 7.511125,-4.50668 14.650645,-9.25352 21.726405,-14.30764 2.56694,-1.83353 5.46923,-3.31556 7.94868,-5.29912 0.78025,-0.6242 1.26283,-1.60555 2.11965,-2.11965 0.47897,-0.28738 1.14287,-0.19476 1.58973,-0.52991 1.75048,-1.31285 4.56876,-5.52836 5.82904,-7.41877 2.45487,-3.68231 1.03141,-10.29563 0.52991,-14.30763 -0.36103,-2.88826 0,-6.08952 0,-9.00851 0,-7.61431 3.29536,-14.35713 4.76921,-21.726399 0.7,-3.499987 0.76942,-7.222663 2.11965,-10.598244 2.44959,-6.123968 11.99332,-12.829644 18.01702,-14.837543"
       class="UnoptimicedTransforms" />
    <path
       style="fill:#000000;stroke-width:0.233671;stroke:none"
       d="m 149.96516,212.4948 c -0.4286,0.83875 -6.51378,-0.38222 -13.58553,-7.56245 -2.72498,-2.75959 -5.14906,-6.36055 -8.27798,-8.84955 0,0 -1e-5,-1e-5 -1e-5,-1e-5 -1.25225,-1.04063 -2.87517,-2.05495 -4.6784,-3.43841 -5.56074,-4.21257 -10.82858,-10.9373 -12.47507,-19.70136 -0.85557,-4.93309 -0.42595,-9.47564 -1.3358,-12.95796 -0.49825,-1.84733 -1.19049,-3.56877 -2.27842,-4.57147 -0.55474,-0.61804 -1.62821,-1.31957 -2.9486,-2.43572 -0.84767,-0.72003 -1.6468,-1.48379 -2.39836,-2.28528 -2.493805,-2.65948 -4.397882,-5.66354 -5.808566,-8.71019 -1.888906,-4.03178 -2.983375,-7.77849 -4.421995,-10.82277 -1.196131,-2.53837 -2.732872,-5.00708 -3.946522,-8.40335 -1.013518,-3.03316 -1.366414,-5.6692 -1.908621,-7.78079 -0.435028,-1.6391 -1.072702,-3.45298 -1.42411,-5.81155 -0.385376,-3.25298 0.101343,-6.22341 0.87124,-8.71364 0.78465,-2.622435 1.880451,-5.149986 2.649853,-7.098601 3.381606,-8.808088 4.578993,-13.137516 8.589309,-17.684912 2.056581,-2.191104 3.776882,-3.200524 4.505072,-3.39094 0.16141,-0.0054 0.28613,0.0029 0.38097,0.02203 0,0 0,1e-6 0,1e-6 0.17796,0.09045 0.26049,0.191652 0.26953,0.300095 0.009,0.108313 -0.0554,0.222037 -0.16639,0.336453 0,0 0,10e-7 0,10e-7 -0.0273,0.0488 -0.0505,0.09297 -0.0628,0.129698 -0.63217,1.476268 -1.652548,2.947555 -2.284718,4.423822 -3.063288,6.073272 -2.138749,6.911408 -5.250491,17.845992 -0.600833,2.182822 -1.444871,4.759039 -1.864431,6.843369 -0.380692,2.01623 -0.614529,4.07822 -0.207364,5.80255 0.22229,1.24518 0.905824,2.77072 1.53667,4.80275 0.858097,2.70473 1.298486,5.21695 2.096065,7.16091 0.799849,2.13929 2.382211,4.46353 3.888708,7.48285 1.891561,3.79938 3.092211,7.59154 4.655231,10.77289 1.18284,2.37289 2.6008,4.63508 4.32524,6.48179 0.52038,0.55728 1.06517,1.07301 1.63617,1.54158 0.89921,0.74336 2.18243,1.65302 3.61146,3.09074 2.45472,2.66943 3.83782,5.78485 4.42418,8.77129 1.09636,5.45754 0.54849,10.00774 1.0586,13.53634 0.77365,6.22551 4.65464,11.76162 8.79707,15.55426 1.38512,1.24759 3.04366,2.52171 4.60888,4.06811 0,0 0,0 0,0 3.22501,3.2892 6.1581,8.27859 7.68579,10.40178 5.15831,7.14899 10.16271,10.0109 9.73411,10.84965 z"
       id="path1540"
       inkscape:path-effect="#path-effect1542;#path-effect1544;#path-effect1546"
       inkscape:original-d="m 149.96516,212.4948 c -7.76885,-2.27689 -11.91793,-10.08284 -16.95719,-15.89736 -4.54749,-5.24711 -1.5423,-1.42982 -5.29912,-4.76921 -5.60584,-4.98297 -9.64871,-11.03401 -12.18798,-18.01702 -1.69011,-4.64779 -1.10002,-9.41044 -1.58974,-14.30763 -0.15324,-1.53245 -1.9672,-4.60078 -2.64956,-5.82903 -1.76638,-3.17948 -1.23646,-1.23647 -3.70939,-3.70939 -2.55212,-2.55212 -4.8113,-6.04057 -6.88886,-9.00851 -2.106486,-3.00927 -2.603721,-6.79718 -4.239294,-10.06833 -0.755864,-1.51173 -4.448592,-7.93533 -4.769212,-9.53842 -0.368814,-1.84407 -0.463345,-4.0396 -1.059822,-5.82903 -0.453772,-1.36132 -1.785078,-2.3711 -2.11965,-3.70939 -0.747317,-2.98926 0.04653,-7.16806 0.529913,-10.06833 0.680935,-4.085618 8.111528,-29.145175 12.717895,-29.145175"
       class="UnoptimicedTransforms" />
    <path
       style="fill:#000000;stroke-width:0.233671;stroke:none"
       d="m 105.45253,206.66577 c -1.21894,-0.066 -1.17586,-12.33232 -3.52529,-31.68675 -1e-5,0 -1e-5,0 -1e-5,-1e-5 -0.54718,-4.322 -1.36711,-10.03968 -0.69522,-15.86417 0.70055,-5.72943 2.94542,-10.89046 2.54551,-15.32434 -0.0585,-1.48971 -0.42193,-3.11425 -0.85159,-4.9629 -0.18675,-0.73926 -0.40987,-1.67805 -0.55551,-2.82705 0,0 -10e-6,-1e-5 -10e-6,-1e-5 -0.16561,-1.14741 -0.10851,-2.50684 0.28827,-4.01243 0,0 1e-5,-2e-5 1e-5,-2e-5 0.74005,-2.22435 2.03516,-3.9452 3.59754,-5.0551 1.48882,-1.09093 2.94576,-1.79665 4.23186,-2.27532 1.24192,-0.50008 2.30727,-0.85679 3.05452,-1.24626 0.71305,-0.41108 1.26397,-0.72086 1.41353,-1.01694 0.17587,-0.1902 0.31508,-0.56008 0.44123,-1.00095 0.12373,-0.44852 0.14267,-1.02951 0.1218,-1.70112 -0.0253,-1.3495 -0.52536,-3.02243 -0.95835,-5.17986 -0.58504,-2.78884 -0.94753,-5.60116 -1.14569,-8.41746 -0.0297,-0.42153 -0.0556,-0.84191 -0.0779,-1.26099 -0.24957,-4.60891 -0.10784,-9.146499 0.31686,-13.543988 0.89976,-9.889856 3.42456,-19.227043 8.22141,-27.266601 0,0 1e-5,-6e-6 1e-5,-6e-6 3.1093,-5.089662 7.25882,-9.786351 10.13992,-13.494328 2.09157,-2.715275 3.93568,-5.338803 6.44056,-7.960986 2.67263,-2.853447 5.92158,-5.072345 9.58811,-6.205999 2.55465,-0.712295 5.0312,-0.850525 6.80482,-1.051605 2.11718,-0.321151 3.75379,-0.604759 4.90596,-1.447649 0,-10e-7 0,-2e-6 0,-3e-6 1.15294,-0.711792 2.02596,-2.022824 2.63416,-3.283125 0.7244,-1.528392 1.10903,-3.379694 1.3878,-4.833365 0.8416,-4.513933 0.99524,-7.151208 1.55581,-7.199512 0.56057,-0.0483 1.50648,2.519282 1.62625,7.442892 0.0465,1.604977 -0.02,3.737698 -0.64781,5.993939 -0.51504,1.87956 -1.56994,3.994121 -3.50858,5.729986 0,-1e-6 -1e-5,4e-6 -1e-5,4e-6 -2.05866,1.697107 -4.50986,2.647255 -6.99145,3.126109 -2.04951,0.465405 -4.3007,0.770337 -5.82599,1.402323 -2.29032,0.83308 -4.36282,2.63565 -6.41601,4.97737 -1.92146,2.245167 -3.40396,4.704252 -5.5214,7.73123 -2.88159,4.153687 -6.76638,8.924749 -9.12001,13.189359 0,0 0,6e-6 0,6e-6 -3.84622,6.766897 -5.74177,14.902279 -6.56593,23.942927 -0.34306,4.03328 -0.451,8.145992 -0.22054,12.266922 0.0213,0.37469 0.0451,0.74895 0.0717,1.12259 0.17776,2.49652 0.47674,4.91632 0.95789,7.2468 0.39165,1.80193 0.93505,3.9582 1.08592,6.58569 0.0678,1.32912 -0.0509,2.75628 -0.41559,4.23185 -0.36669,1.50057 -1.08375,2.98116 -2.16021,4.32987 -1.39295,1.5991 -2.93404,2.65929 -4.39435,3.29766 -1.44212,0.66766 -2.72141,1.09074 -3.7173,1.45654 -1.00239,0.40677 -1.78119,0.70152 -2.22468,1.06634 -0.39622,0.36566 -0.72247,0.61715 -0.67582,0.7046 0,0 0,0 0,0 -0.0655,0.0357 -0.0475,0.31298 -0.0481,0.74879 0,0 0,1e-5 0,1e-5 0.0209,0.44817 0.16892,1.08217 0.32871,1.89249 0.43391,2.01266 0.79608,4.18016 0.84645,6.53 -0.076,6.99195 -2.55541,12.20978 -3.37429,16.6281 -0.85855,4.4165 -0.42022,9.83183 -0.26476,14.28937 0,0 0,0 0,0 0.79856,19.99786 -1.48524,32.25111 -2.70418,32.18508 z"
       id="path1548"
       inkscape:path-effect="#path-effect1550;#path-effect1552;#path-effect1554"
       inkscape:original-d="m 105.45253,206.66577 c -0.56431,-9.31466 0.77476,-18.78821 0,-28.08535 -0.43348,-5.20182 -1.50137,-10.06887 -1.05982,-15.36745 0.4849,-5.81878 2.22789,-11.77763 3.17947,-17.48711 0.23887,-1.43318 0.46585,-4.9614 0,-6.35894 -0.30402,-0.91208 -2.24076,-4.32259 -1.58974,-5.29913 3.34239,-5.01358 11.57731,-4.44617 13.24781,-11.12815 0.98554,-3.94217 -0.31905,-9.014 -1.05982,-12.7179 -0.4803,-2.40148 -0.46267,-8.46249 -0.52991,-9.53842 -0.65051,-10.408125 3.50389,-28.57198 9.53841,-37.623766 5.21388,-7.820812 13.68491,-17.682449 21.19649,-23.316137 3.3803,-2.535224 7.22218,-2.06348 11.12816,-3.179473 7.06089,-2.017395 5.82903,-12.335895 5.82903,-18.017016"
       class="UnoptimicedTransforms" />
    <path
       style="fill:#000000;stroke-width:0.233671;stroke:none"
       d="m 92.204728,198.71709 c -1.047275,0.43508 -9.145912,-10.46655 -2.204701,-27.52686 1.206899,-2.94833 2.879383,-5.89221 5.038495,-8.729 6.186328,-8.03078 12.070148,-11.45209 19.947358,-18.87166 2.14196,-2.02214 4.20625,-4.21147 6.35604,-6.5731 1.28694,-1.592 2.45354,-2.72677 2.47841,-3.58462 0.23325,-0.54482 0.0768,-1.62929 0.0514,-3.2078 -0.16082,-1.55958 -0.14772,-3.66197 0.5698,-6.14531 0.87348,-2.36043 2.25851,-4.20982 3.83716,-5.51005 1.51715,-1.29352 2.98947,-2.21687 4.26078,-2.9863 2.1426,-1.33181 4.27766,-2.69964 6.34984,-4.127 0.61738,-0.42526 1.22676,-0.85413 1.82782,-1.28776 2.73201,-1.9868 5.54531,-4.21093 9.02945,-6.1088 4.53021,-2.47647 8.60979,-3.47015 10.77508,-5.570499 1.8394,-1.44157 3.30795,-4.198156 5.17663,-7.001753 1.17268,-1.854906 2.52634,-3.745914 4.24274,-5.516309 1.77106,-1.850253 4.00867,-3.379806 6.6247,-4.313219 2.6433,-0.835648 5.104,-0.964084 7.17813,-0.872947 2.21583,0.04227 3.94349,0.216486 5.50511,0.06741 1.26777,-0.118198 2.42078,-0.361566 3.3751,-0.81584 1.79324,-0.722461 3.39896,-2.5397 4.86953,-4.377819 1.61947,-2.127692 3.12186,-4.579035 4.96983,-6.766848 1.39131,-1.63315 2.68375,-2.81738 3.58876,-3.972377 1.88966,-2.365095 2.80506,-5.070655 3.13021,-7.347932 0,0 0,-3e-6 0,-3e-6 0.75732,-5.262793 -0.95568,-8.495063 -0.39695,-8.818774 0.55872,-0.323711 3.7163,2.307398 4.01832,8.957181 0,0 0,4e-6 0,4e-6 0.12802,2.87427 -0.47655,6.516135 -2.62898,10.039149 -1.0484,1.691023 -2.30466,3.165878 -3.28096,4.58235 -1.31329,1.884086 -2.47516,4.287275 -4.1794,6.949769 -1.47669,2.410155 -3.64508,5.050977 -6.90238,6.935406 -1.81041,0.971837 -3.7551,1.571108 -5.71384,1.833554 -2.37107,0.314584 -4.43215,0.263823 -6.35868,0.30388 -1.77935,0.08888 -3.39757,0.177125 -4.53242,0.691707 -1.1701,0.420241 -2.30921,1.353372 -3.4197,2.516307 -1.07714,1.150812 -2.01785,2.624665 -3.04798,4.308443 -1.51589,2.632833 -3.38249,6.01257 -6.54003,9.01098 -4.36522,3.69504 -8.80798,5.02635 -12.29016,6.87952 -2.573,1.37602 -5.03278,3.40352 -8.03135,5.55462 -0.65717,0.4749 -1.31955,0.94164 -1.98674,1.40131 -2.24026,1.54345 -4.50246,2.98479 -6.73606,4.35149 -1.30327,0.81813 -2.39272,1.44434 -3.13078,2.11116 -0.70084,0.68121 -1.2549,1.25027 -1.3425,1.70927 -0.27221,0.42188 -0.16505,1.47092 -0.18405,2.93061 0.11982,1.51037 0.13915,3.51596 -0.44214,5.90122 -1.13499,3.31026 -2.99416,5.54138 -4.58285,7.02652 -2.28803,2.38675 -4.5907,4.67116 -7.04148,6.82794 -7.79488,6.87401 -15.37773,11.50367 -20.22276,17.09328 -2.005666,2.28193 -3.616823,4.62011 -4.845541,6.9822 -3.536211,6.74782 -3.823587,13.42269 -3.56752,17.87683 0.256066,4.45413 0.932927,6.97293 0.409289,7.19047 z"
       id="path1556"
       inkscape:path-effect="#path-effect1558;#path-effect1560;#path-effect1562"
       inkscape:original-d="m 92.204728,198.71709 c 1.139549,-8.59722 -1.778332,-18.03205 0.529912,-26.49562 0.550675,-2.01914 3.056031,-5.44264 4.239297,-6.88886 4.524943,-5.53048 11.112343,-9.58324 16.427283,-14.30763 3.10217,-2.75749 5.55789,-6.08779 8.47859,-9.0085 0.65041,-0.65041 3.99287,-3.20418 4.76921,-4.2393 2.74441,-3.65921 0.33614,-7.89727 1.58974,-11.65807 0.29827,-0.89482 2.27154,-3.25576 2.64956,-3.70939 2.17215,-2.60658 6.19379,-4.1402 9.00851,-5.82903 1.91352,-1.14811 3.30722,-2.77731 4.76921,-4.2393 1.35295,-1.35295 4.1361,-2.74199 5.82903,-3.70938 4.02985,-2.30277 8.38457,-3.59283 12.18798,-6.35895 1.80849,-1.31526 3.63023,-4.840299 4.76921,-6.358948 2.57035,-3.427133 5.73093,-6.807102 9.00851,-9.538418 3.70832,-3.090267 8.19415,-3.250586 12.7179,-2.11965 0.64568,0.161419 1.34664,0.839114 2.11964,0.529913 5.31565,-2.12626 7.80151,-7.499758 11.12816,-11.65807 3.76827,-4.710329 1.4131,-0.847858 4.2393,-4.239298 3.92142,-4.705707 2.11965,-14.692832 2.11965,-20.136665"
       class="UnoptimicedTransforms" />
    <path
       style="fill:#000000;stroke-width:0.233671;stroke:none"
       d="m 117.64052,197.12735 c -1.07152,0.91837 -8.4571,-5.2611 -17.33245,-17.18597 0,0 -1e-5,0 -1e-5,0 -1.684305,-2.25898 -3.512527,-4.86777 -5.177928,-7.74658 -0.601317,-1.03971 -1.198063,-2.15474 -1.751837,-3.34673 -0.649422,-1.3562 -1.251087,-2.97444 -1.595588,-4.86695 -0.336576,-2.27796 -0.243878,-4.0587 -0.29138,-5.48091 -0.109842,-4.20841 -2.115001,-9.26588 -2.538816,-15.79216 -0.01455,-0.27175 -0.02554,-0.54356 -0.03302,-0.81538 -0.116194,-4.22579 0.622177,-8.27592 1.886562,-11.93798 2.609619,-7.45425 6.514853,-12.94617 8.858974,-17.99446 3.71963,-7.9755 4.65402,-15.644395 4.93394,-20.970362 0.28273,-5.379292 0.0525,-8.648541 0.85356,-8.85348 0.80103,-0.20494 2.58527,2.742134 3.65956,8.533678 1.06283,5.729707 1.27149,14.532034 -2.33326,24.237424 -2.27058,6.09024 -5.91945,11.82544 -7.718762,17.76436 -0.892205,2.88882 -1.433427,5.94972 -1.332168,8.95594 0.0065,0.19373 0.0157,0.38678 0.02757,0.57912 0.211937,4.64131 2.131751,10.04172 2.224656,16.12608 0.02038,1.99181 -0.174777,3.45278 -0.02678,4.43273 0.06201,0.83862 0.396542,1.83154 0.796242,2.92285 0.36563,0.95294 0.79657,1.91114 1.25107,2.86183 1.2503,2.61609 2.73841,5.21607 4.1005,7.54982 0,0 0,0 0,1e-5 7.24182,12.38249 12.61088,20.10875 11.53936,21.02712 z"
       id="path1564"
       inkscape:path-effect="#path-effect1566;#path-effect1568;#path-effect1570"
       inkscape:original-d="m 117.64052,197.12735 c -6.74711,-5.63524 -10.9392,-13.28615 -15.36746,-20.66658 -1.54834,-2.58057 -3.355223,-4.76655 -4.239298,-7.41877 -0.478926,-1.43678 -1.837256,-2.54494 -2.11965,-4.2393 -0.300432,-1.80261 0.573587,-4.10827 0,-5.82903 -1.918244,-5.75474 -3.363691,-17.62583 -2.119647,-23.84605 1.603011,-8.01506 8.075985,-14.21291 9.538425,-22.25632 1.83396,-10.0868 2.11964,-20.342492 2.11964,-30.734904"
       class="UnoptimicedTransforms" />
    <path
       style="fill:#000000;stroke-width:0.233671;stroke:none"
       d="m 95.914112,211.96489 c -1.031018,-0.0934 -1.147409,-7.89748 -1.399424,-20.82738 -0.257692,-13.22117 -0.736881,-30.7109 -2.876468,-51.60386 -0.627106,-5.83174 -1.414983,-12.61475 -0.576368,-19.61437 0.190743,-1.54398 0.475343,-3.09318 0.860149,-4.63255 0.991269,-3.96545 2.61653,-7.74301 4.87857,-11.13506 2.579106,-3.75743 5.649699,-6.747555 8.262059,-9.356665 2.75728,-2.848103 5.13879,-5.331834 6.57466,-8.111114 0.66163,-1.208576 1.20446,-2.595265 1.72354,-4.045737 2.37035,-6.964342 3.25118,-13.328328 1.95474,-18.949717 -1.24485,-6.2766 -6.56877,-14.225168 -8.87389,-18.361071 -4.36266,-7.72163 -5.9581,-12.603052 -5.22844,-13.00272 0.72966,-0.399667 3.68479,3.702979 9.01032,10.474692 2.94696,3.70247 9.0913,10.851335 11.69815,19.154127 2.0543,7.139922 1.64262,15.149195 -0.91348,23.194569 -0.50942,1.683333 -1.14982,3.475928 -2.03438,5.289515 -2.06205,4.057325 -4.8667,7.338755 -7.7485,10.319521 -2.63123,2.81102 -5.34784,5.47141 -7.13496,8.25802 -1.64474,2.46384 -2.83538,5.32712 -3.59972,8.40688 -0.29669,1.19548 -0.525649,2.40969 -0.69219,3.62753 -0.780785,5.52142 -0.07676,11.74139 0.36845,17.70908 3.35665,42.16115 -2.190781,73.39304 -4.252818,73.20631 z"
       id="path1596"
       inkscape:path-effect="#path-effect1598;#path-effect1600;#path-effect1602"
       inkscape:original-d="m 95.914112,211.96489 c 0,-23.84605 0,-47.6921 0,-71.53815 0,-11.25002 -2.636564,-14.0203 1.059825,-26.49561 2.923538,-9.86694 12.077913,-16.98707 18.017013,-24.905875 0.94632,-1.261761 0.97084,-2.316851 1.58974,-3.709386 3.85048,-8.663579 4.62643,-17.483268 0.52991,-26.495612 -4.29501,-9.449033 -11.30683,-17.314538 -15.89736,-26.49561"
       class="UnoptimicedTransforms" />
    <path
       style="fill:#000000;stroke-width:0.233671;stroke:none"
       d="m 89.555167,195.0077 c -1.730136,-0.0393 -2.620545,-18.46838 -3.962842,-45.13761 -0.256272,-4.78071 -0.545196,-10.46563 0.229527,-16.26639 0.646214,-4.52549 1.799568,-8.44233 2.777103,-12.53826 0.559903,-2.47814 1.065831,-4.94211 1.258793,-7.28503 0.104063,-1.26353 0.11671,-2.48292 0.0052,-3.65905 -0.138712,-2.00524 -0.664145,-4.16127 -1.242529,-6.40526 C 87.409262,99.313066 86.200927,95.468069 84.142655,92.382061 81.700924,88.487295 77.471659,84.951391 74.34419,80.255255 70.611203,74.439362 69.260278,69.057015 67.133954,65.171788 65.814747,62.707644 63.458402,59.493216 62.069166,57.381358 56.97107,49.658543 55.36382,44.434491 56.170692,43.982709 c 0.806872,-0.451781 3.906811,3.861249 9.835918,10.341669 1.694308,1.845633 4.342241,4.583179 6.419446,7.552148 3.066365,4.454092 5.008923,9.944787 8.167184,14.028823 2.500419,3.388856 6.753597,6.540321 10.491277,11.78118 2.922318,4.27742 4.668825,8.985724 5.954845,13.731651 0.688156,2.39622 1.332666,5.06517 1.599123,7.98072 0.126226,1.7116 0.113163,3.39772 -0.007,5.05511 -0.22339,3.08047 -0.812454,5.99744 -1.505544,8.68116 -1.096155,4.44717 -2.259778,8.01501 -2.867551,11.74897 -0.815321,4.68175 -0.733755,9.9916 -0.766463,14.80213 -0.0954,26.91792 -2.206596,45.36069 -3.936732,45.32143 z"
       id="path1612"
       inkscape:path-effect="#path-effect1614;#path-effect1616;#path-effect1618"
       inkscape:original-d="m 89.555167,195.0077 c 0,-5.29912 0,-10.59824 0,-15.89737 0,-9.36178 0,-18.72356 0,-28.08535 0,-4.37539 -0.546339,-9.407 0,-13.77771 1.164778,-9.31823 6.99907,-24.33784 3.709386,-33.38447 C 91.896215,100.09987 91.003158,94.488658 88.495342,91.144903 85.651359,87.352928 79.47005,81.77931 77.367184,77.897098 75.485995,74.42413 73.933212,70.780464 72.068064,67.298852 69.258256,62.053878 69.345193,63.526295 65.709116,58.290345 62.439678,53.582353 59.35017,48.751924 56.170695,43.982715"
       class="UnoptimicedTransforms" />
    <path
       style="fill:#000000;stroke-width:0.233671;stroke:none"
       d="m 98.033762,179.11033 c -1.633641,-0.0742 -2.367686,-10.46208 -3.836671,-25.61452 -0.570251,-5.47788 -1.394555,-13.02495 0.227204,-20.60483 0.514548,-2.21783 1.185509,-4.24947 1.857766,-6.20704 0.306084,-0.8913 0.599322,-1.73018 0.874223,-2.55723 1.091727,-3.46433 2.148322,-7.20665 4.484426,-10.99053 2.97165,-4.44429 6.31118,-6.89218 8.25518,-9.32052 0,0 0,-10e-6 0,-10e-6 1.16332,-1.40616 2.2153,-3.19912 3.4674,-4.957151 1.42231,-2.08354 3.14625,-3.927585 5.25365,-5.301803 1.78261,-1.081746 3.55914,-1.656608 4.69577,-2.055211 1.7172,-0.675349 2.62176,-0.991192 3.4773,-1.691571 0,0 0,-1e-6 0,-1e-6 1.41335,-1.070382 1.93664,-2.407371 2.50857,-2.374398 0.29884,0.01723 1.52402,1.459747 0.10667,4.295965 0,10e-7 0,10e-7 0,2e-6 -0.7784,1.48153 -2.09126,2.859638 -3.84808,4.013201 -1.14494,0.80837 -2.67967,1.721595 -3.46311,2.521735 -1.07079,0.975969 -1.85975,2.351992 -2.87895,4.214422 -0.7757,1.4986 -1.78182,3.69788 -3.11966,5.77382 0,0 0,0 0,0 -2.44426,3.70034 -5.67547,6.47775 -7.2205,9.34838 -1.44586,2.34113 -2.05556,5.37239 -3.34353,9.24143 -0.29558,0.93086 -0.60144,1.82769 -0.9046,2.70844 -0.6689,1.94337 -1.27633,3.67391 -1.67887,5.34703 -1.45353,5.48892 -1.05914,12.64284 -1.1097,18.23933 -0.032,15.6437 -2.170847,26.04525 -3.804488,25.97106 z"
       id="path1620"
       inkscape:path-effect="#path-effect1622;#path-effect1624;#path-effect1626"
       inkscape:original-d="m 98.033762,179.11033 c 0,-7.77204 0,-15.54409 0,-23.31614 0,-7.02624 -0.465906,-14.22575 0.529912,-21.19648 0.433746,-3.03623 2.060866,-5.5351 2.649566,-8.4786 0.53067,-2.65339 1.40098,-5.98144 2.64956,-8.47859 2.05241,-4.10483 6.00677,-6.89052 8.47859,-10.59825 2.3745,-3.56175 4.17171,-7.351177 7.41877,-10.598244 2.96259,-2.962582 9.53842,-3.827624 9.53842,-9.008509"
       class="UnoptimicedTransforms" />
    <path
       style="fill:#000000;stroke-width:0.233671;stroke:none"
       d="m 119.23025,193.94787 c -0.80296,0.4277 -3.81205,-2.8664 -6.85583,-9.7693 -3.03329,-6.87911 -5.93588,-17.53092 -4.93706,-30.40917 0.56216,-7.03696 2.29529,-14.19113 3.16521,-21.29512 0.18849,-1.58218 0.33895,-3.17334 0.42181,-4.753 0.13422,-2.5588 0.087,-5.01057 -0.22694,-7.35842 -0.3028,-1.96843 -0.61955,-3.63425 -1.32932,-4.81419 -0.28407,-0.53034 -0.88393,-1.36872 -1.54108,-2.62474 -0.77297,-1.2834 -1.18802,-3.11759 -0.97993,-5.33592 0.3649,-1.76817 1.05548,-3.10068 1.86911,-3.99499 0.77133,-0.91281 1.44013,-1.52453 1.87643,-1.93552 1.83575,-1.715157 3.58482,-4.42941 5.41053,-6.853843 0,0 0,-3e-6 0,-3e-6 2.23836,-3.016777 4.36924,-5.463771 5.95039,-7.818229 2.27896,-3.330652 3.96212,-6.916595 5.72499,-9.828332 3.85318,-6.376806 7.12905,-9.305805 7.87897,-8.79842 0.74992,0.507386 -1.0737,4.345594 -3.46941,10.92516 -0.91567,2.521903 -2.45373,7.234917 -4.42839,11.064418 -1.71582,3.268935 -3.44002,5.621131 -5.41264,8.749008 -10e-6,1e-6 -10e-6,3e-6 -10e-6,4e-6 -1.44384,2.329547 -3.21339,5.424057 -5.77253,8.252917 -0.60641,0.66662 -1.07401,1.10748 -1.24941,1.3912 -0.12464,0.29467 -0.20556,0.32855 -0.0694,0.0829 -0.0674,-0.3271 0.10028,-0.27259 0.22286,0.17489 0.21704,0.426 0.77521,1.1249 1.45083,2.26634 1.48242,2.63869 2.22357,5.36273 2.54028,7.90684 0.41874,2.98926 0.515,5.99391 0.36816,8.99453 -0.0907,1.85382 -0.27238,3.66887 -0.51427,5.43001 -1.061,7.89645 -2.99655,14.78867 -3.81823,21.01434 -1.52671,11.33105 -0.0126,21.16423 1.53218,28.0118 1.54809,6.86229 2.99569,10.89715 2.19273,11.32485 z"
       id="path1628"
       inkscape:path-effect="#path-effect1630;#path-effect1632;#path-effect1634"
       inkscape:original-d="m 119.23025,193.94787 c -6.18114,-11.50456 -9.26186,-25.02189 -7.94868,-38.15368 0.57144,-5.71441 2.30868,-11.29703 3.17947,-16.95719 0.70605,-4.58931 0.52991,-9.15381 0.52991,-13.77771 0,-5.90377 0.55693,-5.20456 -0.52991,-9.00851 -0.70859,-2.48007 -4.22637,-6.3848 -3.17947,-8.4786 0.85287,-1.70574 3.18349,-3.79082 4.2393,-5.29912 2.83497,-4.049964 5.62526,-8.111793 8.47859,-12.187982 2.07742,-2.967739 3.1675,-6.334999 4.76921,-9.538418 2.08702,-4.174029 4.60095,-8.120596 6.88886,-12.187983"
       class="UnoptimicedTransforms" />
    <path
       style="fill:#000000;stroke-width:0.233671;stroke:none"
       d="m 126.11911,202.95638 c -1.06128,0.48369 -4.09181,-3.48291 -7.88768,-10.54774 -3.94439,-7.31006 -9.55767,-19.54452 -11.57414,-33.34 -0.12344,-0.8445 -0.23259,-1.68729 -0.32728,-2.52839 -1.14402,-10.77796 0.14664,-23.63876 0.63783,-30.08837 0.16651,-2.5148 0.36691,-4.72436 1.04868,-7.00232 0.27012,-0.87927 0.54758,-1.47881 0.7079,-1.95361 1.00539,-2.74134 -0.18166,-5.16671 0.4375,-5.68448 0.61915,-0.51777 3.93446,0.90889 3.9595,6.2198 -0.005,0.88454 -0.10261,1.70982 -0.12376,2.36427 -0.0779,1.82914 0.19135,3.27896 0.43214,5.97274 0.79175,8.00684 0.34069,18.46398 1.65013,29.17683 0.0865,0.75207 0.18373,1.50773 0.29152,2.26766 1.66751,11.75632 6.22125,24.94966 8.42874,32.27729 2.29191,7.55684 3.3802,12.38263 2.31892,12.86632 z"
       id="path1644"
       inkscape:path-effect="#path-effect1646;#path-effect1648;#path-effect1650"
       inkscape:original-d="m 126.11911,202.95638 c -2.76586,-3.60332 -3.59543,-8.09911 -5.29912,-12.18798 -5.26562,-12.63748 -9.44977,-25.43178 -10.59825,-39.2135 -0.76787,-9.2145 0,-18.82625 0,-28.08535 0,-1.05003 0.003,-3.1862 0.52992,-4.2393 0.069,-0.13796 0.94415,-0.64558 0.52991,-1.05982 -1.32584,-1.32584 -2.11965,-3.98934 -2.11965,-6.35895"
       class="UnoptimicedTransforms" />
    <path
       style="fill:#000000;stroke-width:0.233671;stroke:none"
       d="m 112.34139,185.99919 c -1.43303,0.31591 -3.88861,-5.16174 -7.0524,-13.58283 -0.56307,-1.46678 -1.12592,-3.00741 -1.80553,-4.16215 -0.87639,-1.62213 -2.1781,-3.06381 -3.831333,-5.23167 -1.510751,-1.869 -3.190911,-4.28569 -4.325827,-7.40612 -0.224906,-0.65545 -0.410268,-1.33437 -0.551322,-2.03314 -0.115894,-0.57413 -0.200869,-1.15667 -0.253889,-1.74532 -0.141628,-1.96125 0.0117,-3.64149 0.17706,-4.98834 0.0695,-0.70311 0.168494,-1.55094 0.37159,-2.53657 0.562811,-2.3615 1.508268,-4.24907 2.440904,-5.71949 0.965004,-1.6022 1.853236,-2.82855 2.438517,-3.91446 10e-7,0 10e-7,0 10e-7,0 0.826369,-1.49782 1.358499,-3.03272 1.628899,-4.49917 0.11495,-0.66276 0.21003,-1.63815 0.47187,-2.75477 0.46559,-1.66834 1.18669,-2.87047 1.79015,-3.71318 0.7341,-1.09365 1.34188,-1.80255 1.74086,-2.43687 1.02072,-1.55087 1.3131,-2.97438 1.99124,-3.10469 0.49574,-0.0952 1.92554,1.03266 1.7293,4.10429 -0.0957,1.26838 -0.40667,2.40051 -0.7747,3.66209 -0.2365,0.92686 -0.49954,1.8668 -0.41793,2.49048 0.008,0.41713 0.13374,1.07922 0.15833,2.10961 0.0697,2.2939 -0.29956,4.79596 -1.26362,7.29897 0,0 0,0 0,0 -0.73017,1.8626 -1.52836,3.30302 -2.24768,4.7583 -0.59576,1.29719 -1.13728,2.4614 -1.22638,3.39163 -0.0681,0.38609 -0.0911,0.92512 -0.14908,1.64279 -0.0791,1.37829 -0.19759,2.55496 -0.0832,3.41098 0.0241,0.2591 0.0643,0.52302 0.11908,0.79015 0.0667,0.32504 0.15449,0.65174 0.25944,0.97623 0.44308,1.56412 1.65119,3.29585 2.87664,5.16134 1.4559,2.07525 2.93941,4.24093 4.08743,6.93819 0.82501,2.06556 1.24535,4.00935 1.52969,5.60547 1.68398,9.09093 1.57478,15.17899 0.17192,15.48825 z"
       id="path1652"
       inkscape:path-effect="#path-effect1654;#path-effect1656;#path-effect1658"
       inkscape:original-d="m 112.34139,185.99919 c -0.12779,-6.16503 -2.9398,-12.07144 -4.76921,-18.01701 -1.70858,-5.55288 -6.77211,-9.7181 -8.478592,-14.83755 -0.419727,-1.25917 0,-3.41723 0,-4.76921 0,-0.53349 -0.16812,-2.1452 0,-2.64956 1.025082,-3.07525 3.283012,-6.13964 4.239302,-9.00851 0.83268,-2.49804 0.53331,-4.24611 1.58973,-6.35894 0.28262,-0.56524 -0.28262,-1.55441 0,-2.11965 2.27376,-4.54752 2.64956,-4.64419 2.64956,-10.06833"
       class="UnoptimicedTransforms" />
    <path
       style="fill:#000000;stroke-width:0.233671;stroke:none"
       d="m 91.144903,200.83673 c -0.637041,0.12332 -2.429167,-3.17043 -1.903194,-9.5998 10e-7,-1e-5 10e-7,-1e-5 0,-1e-5 0.180326,-2.13952 0.575478,-3.99679 1.051473,-6.40857 0.791088,-4.07522 1.708518,-9.46286 1.691614,-14.86052 -0.03059,-4.32973 -0.899165,-11.46691 0.621498,-17.98244 1.802174,-6.63478 5.664237,-11.93525 9.825856,-17.06129 0,0 0,-1e-5 0,-1e-5 3.45125,-4.54331 7.22056,-9.19665 8.1977,-14.02124 0.50783,-2.29664 0.60078,-4.68911 -0.0735,-6.68917 -0.63896,-1.89915 -1.86922,-3.71124 -3.43064,-4.52294 -0.30542,-0.17148 -0.62537,-0.31916 -0.951,-0.4373 -0.48793,-0.17703 -0.98549,-0.28664 -1.46324,-0.31216 -0.79671,-0.0458 -1.61425,0.0903 -2.25643,0.40559 0,0 0,1e-5 0,1e-5 -0.64457,0.31057 -1.23306,0.80181 -1.56568,1.34326 -0.33867,0.53577 -0.54277,1.21389 -0.50577,1.76964 0.003,0.22239 0.10117,0.83298 0.13986,1.83232 0.11885,1.04094 -0.16961,2.41775 -0.981014,4.00108 0,0 -1.2e-5,2e-5 -1.2e-5,2e-5 -1.18254,1.82758 -2.888417,2.89137 -4.846932,3.10417 -1.921236,0.17593 -3.644122,-0.32237 -4.99989,-1.37845 -1.32786,-1.05049 -2.211731,-2.35489 -2.630808,-3.77391 0,0 -5e-6,-10e-6 -5e-6,-10e-6 -0.4137,-1.40729 -0.477476,-2.76409 -0.245011,-3.99413 0.537884,-2.44166 1.587989,-4.26131 2.702867,-5.49773 1.046831,-1.29643 1.944711,-2.15813 2.406292,-2.85324 1.15769,-1.48962 1.562315,-3.76371 1.518734,-5.966021 -0.06555,-2.360579 -0.894418,-4.863682 -1.896636,-7.28845 -0.632431,-1.336028 -1.423386,-3.118806 -1.787175,-5.482795 -0.194692,-2.271322 0.194141,-4.233298 0.783237,-5.805365 0.569698,-1.642739 1.191004,-2.938234 1.585817,-4.046004 0.370822,-1.145687 0.650114,-2.083337 0.578748,-2.836119 0.04749,-1.001822 -0.601998,-2.25137 -1.32829,-3.526928 -0.853599,-1.383775 -2.016401,-2.840064 -3.026346,-4.523863 -1.724534,-2.967479 -2.725726,-6.262028 -3.458375,-8.431809 -1.229209,-3.44842 -2.066263,-5.394457 -3.479506,-7.163259 -1.903329,-2.442498 -3.686017,-3.330193 -3.522073,-3.786749 0.163943,-0.456556 2.383288,-0.561367 5.449663,1.787347 2.100941,1.640538 3.887448,4.020643 5.592449,7.431115 1.108865,2.130864 2.474402,5.198855 3.984346,7.158756 0.870591,1.17431 2.098674,2.417547 3.381616,4.108833 1.223969,1.530877 2.382235,3.609101 2.817168,6.270923 0.220242,2.014582 -0.03308,3.896691 -0.538143,5.538672 -0.45298,1.590581 -0.99534,2.953461 -1.308396,4.127668 -0.25495,1.120965 -0.456022,2.096536 -0.264651,2.73305 0.04461,0.712491 0.698916,1.700729 1.410433,3.287027 1.40815,2.816379 2.605503,6.139222 2.973093,9.884626 0.36791,3.598535 -0.33811,7.587585 -2.600519,11.164265 -1.035336,1.52211 -2.043881,2.59982 -2.690291,3.43821 -0.545377,0.85684 -0.990848,1.42042 -0.896026,1.66076 0.01388,0.0972 -3.82e-4,0.12656 -0.0018,0.0112 0,0 0,0 0,0 -0.01004,-0.13826 -0.11637,-0.26011 -0.359997,-0.49797 -0.280262,-0.25003 -0.617517,-0.32399 -1.194139,-0.31193 -0.624876,0.0502 -1.053804,0.3468 -1.541284,1.01249 0,0 -3e-6,1e-5 -3e-6,1e-5 -0.223941,0.60121 -0.358011,0.78985 -0.270422,0.68019 0.0076,-0.1446 -0.09497,-0.67027 -0.154271,-1.59684 -0.126324,-2.45938 0.496835,-4.85774 1.790543,-6.91227 1.27856,-2.01522 3.071421,-3.60253 5.189122,-4.61049 0,0 1.2e-5,-10e-6 1.2e-5,-10e-6 2.086985,-0.9874 4.357735,-1.414645 6.613675,-1.26339 1.33607,0.0916 2.63676,0.36484 3.87107,0.80498 0.8238,0.29375 1.61449,0.66057 2.36344,1.09413 3.77245,2.24918 6.31397,5.76634 7.42952,9.60512 1.12743,3.89204 1.02144,7.82447 0.0887,11.33729 -2.01093,7.21829 -6.43721,12.75921 -10.23029,17.12005 0,0 -1e-5,10e-6 -1e-5,10e-6 -4.17497,5.12054 -7.68782,9.10986 -9.035752,13.85987 -1.475403,4.34931 -1.078154,11.31001 -1.51515,16.27296 -0.519002,6.1423 -2.07289,11.66499 -3.485184,15.7894 -0.857528,2.52873 -1.409358,3.87292 -1.934889,5.81643 0,0 -10e-7,0 -10e-7,0 -1.479488,5.40735 -1.04877,8.86841 -1.685811,8.99173 z"
       id="path1660"
       inkscape:path-effect="#path-effect1662;#path-effect1664;#path-effect1666"
       inkscape:original-d="m 91.144903,200.83673 c 0.969586,-2.67689 -1.266649,-7.00512 0,-9.53842 1.253606,-2.50721 0.741615,-4.6627 1.589737,-6.35894 2.659831,-5.31966 2.141491,-14.03984 2.649561,-20.13667 1.194298,-14.33156 1.614223,-29.03848 1.059825,-43.4528 -0.873475,-22.710356 -0.172017,8.05957 -1.059825,-13.24781 -0.196192,-4.70863 0.954112,-19.712461 -1.589736,-22.25631 -1.521774,-1.521773 1.501528,-9.980121 2.119647,-10.598243 C 97.670837,73.490815 92.934208,66.151842 92.204728,65.179205 88.283744,59.951227 86.001503,53.780672 82.666307,48.222013 81.851114,46.863356 78.853085,45.04254 77.897098,45.04254"
       class="UnoptimicedTransforms" />
    <path
       style="fill:#000000;stroke-width:0.233671;stroke:none"
       d="m 100.68332,179.11033 c -1.794343,-0.10966 -1.550845,-20.72205 -4.049269,-49.864 -0.467321,-5.44172 -1.122658,-12.02649 -1.374127,-18.29704 -0.06771,-1.57365 -0.09738,-3.03058 -0.265512,-4.28544 -0.321002,-3.03982 -1.586561,-6.20366 -2.763305,-10.131745 -0.317065,-1.058393 -0.619271,-2.149192 -0.884245,-3.281519 -1.178806,-4.530617 -1.273415,-9.626029 0.582374,-14.517079 0.778618,-1.834561 1.662093,-3.282805 2.322504,-4.437255 1.062651,-2.055207 2.396291,-4.674856 4.910888,-7.172817 2.178812,-1.884675 4.273042,-2.878613 5.469542,-3.643351 0,0 1e-5,-4e-6 1e-5,-4e-6 3.16222,-1.924849 5.41409,-5.683729 7.14855,-9.258094 3.50662,-7.476673 4.99252,-16.733672 5.94092,-22.201352 1.39293,-8.158207 2.22818,-12.966619 3.09834,-12.943795 0.87016,0.02282 1.66211,4.896266 1.61602,13.352125 -0.0172,5.835038 -0.44951,15.333609 -3.90634,24.603588 -1.60015,4.435006 -4.38575,9.427765 -9.26032,13.103899 0,-10e-7 0,5e-6 0,5e-6 -1.95573,1.434311 -3.65818,2.216026 -4.38212,3.067689 -1.05795,0.863828 -1.73252,2.763595 -3.09953,5.183763 -0.74799,1.439716 -1.46501,2.61515 -1.80738,3.574869 -1.090606,2.454397 -0.785182,5.740606 -0.05871,9.257617 0.213352,0.887955 0.476432,1.801575 0.767342,2.75221 1.08199,3.535791 2.4274,7.248396 2.98474,11.669246 0.19755,1.8511 0.21799,3.55362 0.24199,5.04876 0.11834,6.18561 0.53897,12.24224 0.76537,18.05564 1.16522,29.81121 -2.20339,50.47374 -3.99773,50.36408 z"
       id="path1700"
       inkscape:path-effect="#path-effect1702;#path-effect1704;#path-effect1706"
       inkscape:original-d="m 100.68332,179.11033 c 0,-13.2478 0,-26.49561 0,-39.74341 0,-9.46504 0.1043,-18.77236 -1.059821,-28.08535 -0.153365,-1.22692 0.203272,-2.48975 0,-3.70939 -0.725973,-4.35583 -2.992314,-8.415464 -3.709387,-12.71789 -0.513799,-3.082804 -0.660517,-11.005041 0,-14.30763 0.443984,-2.219916 0.547675,-1.095348 1.589739,-3.179476 1.099287,-2.198577 2.182505,-4.323108 3.709389,-6.358945 0.98035,-1.307138 2.41878,-1.789161 3.70938,-2.649562 2.95924,-1.972825 6.72377,-5.937551 8.4786,-9.008507 5.37317,-9.40306 7.41877,-29.74134 7.41877,-40.27333"
       class="UnoptimicedTransforms" />
    <path
       style="fill:#000000;stroke-width:0.233671;stroke:none"
       d="m 103.8628,212.4948 c -0.70765,-0.0904 -1.22308,-1.02456 -2.03143,-2.01336 -0.76313,-1.01969 -2.190073,-1.98414 -3.949925,-4.74898 -0.785443,-1.18851 -1.476717,-2.537 -2.029865,-4.02535 0,0 -10e-7,0 -10e-7,0 -1.201958,-3.28435 -1.727729,-6.90359 -1.654885,-10.69737 3.29e-4,-0.0784 9.23e-4,-0.15602 0.0017,-0.23283 0.01386,-1.30599 0.08607,-2.26396 0.02137,-3.0441 -0.135849,-0.60852 -0.235157,-2.03837 0.153993,-4.13399 0.468498,-1.39571 0.927787,-2.17504 1.175348,-2.4779 1.837808,-2.43983 2.759169,-6.94173 4.547637,-9.45855 0.81706,-1.21408 2.27349,-2.22524 2.524,-2.3775 0.23877,-0.14202 0.47174,-0.24156 0.71211,-0.24288 0.23829,-0.001 0.47977,0.0965 0.69517,0.33344 0.70381,0.787 0.66952,2.20406 0.5482,4.00394 -0.0413,1.28423 0.227,6.85632 -1.6972,11.52167 -0.28441,0.73302 -0.45402,0.9776 -0.28086,0.75318 -0.0459,-0.51468 0.22998,0.0727 0.28176,1.16699 0.18327,1.57864 0.16724,2.93769 0.13838,4.10804 -4.3e-4,0.0176 -0.005,0.18708 -0.005,0.20469 -0.0267,3.29403 0.0371,5.90477 0.47392,8.40183 0,0 0,0 0,0 0.18705,1.11635 0.4123,2.12232 0.68614,3.06111 0.84119,2.6294 1.72627,4.56805 1.54729,7.09962 -0.20143,2.09592 -1.23236,2.87814 -1.85773,2.7983 z"
       id="path1708"
       inkscape:path-effect="#path-effect1710;#path-effect1712;#path-effect1714"
       inkscape:original-d="m 103.8628,212.4948 c 0,-0.70654 0.1941,-1.44028 0,-2.11965 -0.56935,-1.99271 -2.19425,-4.9184 -3.17948,-6.88885 -1.994768,-3.98955 -2.119646,-11.43238 -2.119646,-15.89737 0,-0.70667 -0.33628,-2.50692 0,-3.17947 1.857486,-3.71497 2.678976,-7.53644 3.709386,-11.65807 0.31283,-1.25131 1.05983,-2.13025 1.05983,-3.70939"
       class="UnoptimicedTransforms" />
    <path
       class="UnoptimicedTransforms"
       style="fill:#000000;stroke-width:0.233671;stroke:none"
       d="m 116.58069,204.54612 c -0.18291,0.5104 -3.12653,1.67484 -6.72599,-1.95596 -1.93141,-2.04101 -3.2031,-4.68073 -4.12516,-7.70296 -1.48997,-4.40327 -3.06697,-10.24593 -3.52202,-16.6333 -0.0244,-0.34682 -0.0451,-0.69693 -0.0618,-1.05011 -0.0794,-1.68358 -0.0628,-3.36675 0.0743,-5.04758 0.1149,-1.43533 0.29708,-2.55772 0.32685,-3.42797 -0.005,-0.90872 0.0209,-1.56474 -0.13682,-1.94064 -0.0461,-0.38277 -0.50024,-0.97113 -1.04626,-1.7364 -2.878175,-3.75912 -5.957118,-6.89357 -7.516067,-9.29608 -1.201539,-1.848 -1.593193,-3.15381 -1.113129,-3.67032 0.483835,-0.52056 1.790583,-0.20611 3.722864,0.69988 2.128666,0.99569 6.589682,3.4673 10.504792,7.05628 0.86628,0.75262 1.88059,1.85839 2.7843,3.4823 0.88207,1.82653 1.27959,3.67077 1.29157,5.34841 0.0471,1.60331 -0.0648,2.89987 -0.11498,4.04384 -0.0544,1.30065 -0.034,2.65037 0.0325,4.07476 0.0139,0.29843 0.0297,0.59746 0.047,0.89661 0.29357,5.18436 1.28375,11.33342 1.8245,15.55296 0.50279,3.1642 0.48429,4.57413 1.22678,6.31176 0.98092,2.60583 2.85341,4.08297 2.52675,4.99452 z"
       id="path1716"
       inkscape:path-effect="#path-effect1718;#path-effect1720;#path-effect1722"
       inkscape:original-d="m 116.58069,204.54612 c -1.68557,-0.75405 -3.8066,-2.02482 -4.76921,-3.70939 -3.19665,-5.59413 -4.7411,-17.70783 -5.29912,-23.84605 -0.33887,-3.72756 0.89553,-8.62437 -0.52992,-12.18798 -0.99819,-2.4955 -10.987123,-10.45721 -13.2478,-12.71789" />
    <path
       class="UnoptimicedTransforms"
       style="fill:#000000;stroke-width:0.233671;stroke:none"
       d="m 83.196219,207.72559 c -0.746239,0.0168 -1.485211,-1.45048 -2.149504,-4.06113 -0.273364,-1.0022 -0.586226,-2.55093 -0.30205,-4.51828 0.317752,-1.63501 0.982559,-3.15927 1.853118,-4.48232 0.715916,-1.15136 1.467286,-2.15435 1.947214,-3.04048 0,0 1e-6,0 1e-6,0 1.388879,-2.32934 1.896929,-5.12757 2.691417,-9.08116 0.49404,-2.74137 0.919567,-5.41958 1.399795,-8.44712 0.667638,-4.20905 1.275456,-8.00397 2.062866,-11.84036 1.616569,-8.12156 3.083449,-14.1622 3.708443,-18.05538 0.422531,-2.55111 0.76696,-4.15541 1.506592,-4.30253 0.706621,-0.14056 1.806525,1.19488 2.650938,3.97605 1.485331,4.96908 1.354066,10.87965 0.321379,19.67952 -0.397506,3.57801 -0.883197,7.79397 -1.542271,11.92758 -0.488396,3.06316 -1.056715,5.99876 -1.756854,8.84866 -0.953451,4.22017 -2.47789,8.17461 -5.115389,11.51276 0,0 -2e-6,1e-5 -2e-6,1e-5 -0.990288,1.18957 -2.028943,2.1426 -2.68782,2.80019 -0.805535,0.85898 -1.372918,1.40561 -1.701654,2.02232 -0.443105,0.6425 -0.669226,1.93049 -0.904151,2.92492 -0.568519,2.62203 -1.235829,4.11993 -1.982068,4.13675 z"
       id="path1724"
       inkscape:path-effect="#path-effect1726;#path-effect1728;#path-effect1730"
       inkscape:original-d="m 83.196219,207.72559 c 0.94516,-1.99985 -0.989056,-5.44065 0,-7.41877 1.085047,-2.17009 3.412159,-3.87753 4.239298,-6.35895 1.020685,-3.06205 2.764574,-6.23157 3.709386,-9.53841 1.686051,-5.90118 2.269141,-12.47804 3.179473,-18.54693 1.313196,-8.75464 3.3737,-17.04589 1.589736,-25.9657" />
    <ellipse
       style="fill:#ffffff;stroke-width:0.233671"
       id="path2064"
       cx="94.589333"
       cy="141.75151"
       rx="2.9145172"
       ry="0.79486835" />
    <ellipse
       style="fill:#ffffff;stroke-width:0.233671"
       id="path2066"
       cx="105.45253"
       cy="141.75151"
       rx="2.6495612"
       ry="0.79486835" />
  </g>
</svg>
